League Spartan-Bold.ufo
<glyph name="exclam" format="2">
	<advance width="349"/>
	<unicode hex="0021"/>
	<outline>
		<contour>
			<point x="174" y="214" type="curve"/>
			<point x="174" y="214" type="line"/>
			<point x="111" y="214"/>
			<point x="60" y="163"/>
			<point x="60" y="99" type="curve"/>
			<point x="60" y="36"/>
			<point x="111" y="-15"/>
			<point x="174" y="-15" type="curve"/>
			<point x="238" y="-15"/>
			<point x="289" y="36"/>
			<point x="289" y="99" type="curve"/>
			<point x="289" y="163"/>
			<point x="238" y="214"/>
		</contour>
		<contour>
			<point x="110" y="270" type="line"/>
			<point x="239" y="270" type="line"/>
			<point x="263" y="860" type="line"/>
			<point x="86" y="860" type="line"/>
		</contour>
	</outline>
</glyph>
<glyph name="quotedbl" format="2">
	<advance width="513"/>
	<unicode hex="0022"/>
	<outline>
		<contour>
			<point x="145" y="840" type="curve"/>
			<point x="145" y="840" type="line"/>
			<point x="100" y="840"/>
			<point x="60" y="804"/>
			<point x="60" y="765" type="curve"/>
			<point x="60" y="761" type="line" smooth="yes"/>
			<point x="60" y="715"/>
			<point x="102" y="475"/>
			<point x="102" y="475" type="curve"/>
			<point x="169" y="475" type="line"/>
			<point x="169" y="475"/>
			<point x="231" y="715"/>
			<point x="231" y="761" type="curve"/>
			<point x="231" y="765" type="line" smooth="yes"/>
			<point x="231" y="804"/>
			<point x="191" y="840"/>
		</contour>
		<contour>
			<point x="367" y="840" type="curve"/>
			<point x="367" y="840" type="line"/>
			<point x="322" y="840"/>
			<point x="282" y="804"/>
			<point x="282" y="765" type="curve"/>
			<point x="282" y="761" type="line" smooth="yes"/>
			<point x="282" y="715"/>
			<point x="324" y="475"/>
			<point x="324" y="475" type="curve"/>
			<point x="391" y="475" type="line"/>
			<point x="391" y="475"/>
			<point x="453" y="715"/>
			<point x="453" y="761" type="curve"/>
			<point x="453" y="765" type="line" smooth="yes"/>
			<point x="453" y="804"/>
			<point x="413" y="840"/>
		</contour>
	</outline>
</glyph>
<glyph name="numbersign" format="2">
	<advance width="833"/>
	<unicode hex="0023"/>
	<outline>
		<contour>
			<point x="294" y="219" type="line"/>
			<point x="402" y="219" type="line"/>
			<point x="345" y="0" type="line"/>
			<point x="469" y="0" type="line"/>
			<point x="526" y="219" type="line"/>
			<point x="633" y="219" type="line"/>
			<point x="665" y="340" type="line"/>
			<point x="558" y="340" type="line"/>
			<point x="596" y="486" type="line"/>
			<point x="698" y="486" type="line"/>
			<point x="730" y="607" type="line"/>
			<point x="628" y="607" type="line"/>
			<point x="685" y="825" type="line"/>
			<point x="561" y="825" type="line"/>
			<point x="504" y="607" type="line"/>
			<point x="396" y="607" type="line"/>
			<point x="453" y="825" type="line"/>
			<point x="329" y="825" type="line"/>
			<point x="272" y="607" type="line"/>
			<point x="165" y="607" type="line"/>
			<point x="133" y="486" type="line"/>
			<point x="240" y="486" type="line"/>
			<point x="202" y="340" type="line"/>
			<point x="100" y="340" type="line"/>
			<point x="68" y="219" type="line"/>
			<point x="170" y="219" type="line"/>
			<point x="113" y="0" type="line"/>
			<point x="237" y="0" type="line"/>
		</contour>
		<contour>
			<point x="434" y="340" type="line"/>
			<point x="326" y="340" type="line"/>
			<point x="364" y="486" type="line"/>
			<point x="472" y="486" type="line"/>
		</contour>
	</outline>
</glyph>
<glyph name="quotesingle" format="2">
	<advance width="291"/>
	<unicode hex="0027"/>
	<outline>
		<contour>
			<point x="145" y="840" type="curve"/>
			<point x="145" y="840" type="line"/>
			<point x="100" y="840"/>
			<point x="60" y="804"/>
			<point x="60" y="765" type="curve"/>
			<point x="60" y="761" type="line" smooth="yes"/>
			<point x="60" y="715"/>
			<point x="102" y="475"/>
			<point x="102" y="475" type="curve"/>
			<point x="169" y="475" type="line"/>
			<point x="169" y="475"/>
			<point x="231" y="715"/>
			<point x="231" y="761" type="curve"/>
			<point x="231" y="765" type="line" smooth="yes"/>
			<point x="231" y="804"/>
			<point x="191" y="840"/>
		</contour>
	</outline>
</glyph>
<glyph name="asterisk" format="2">
	<advance width="488"/>
	<unicode hex="002A"/>
	<outline>
		<contour>
			<point x="402" y="778" type="line"/>
			<point x="288" y="743" type="line"/>
			<point x="287" y="860" type="line"/>
			<point x="201" y="860" type="line"/>
			<point x="200" y="743" type="line"/>
			<point x="86" y="778" type="line"/>
			<point x="60" y="698" type="line"/>
			<point x="174" y="657" type="line"/>
			<point x="108" y="558" type="line"/>
			<point x="174" y="513" type="line"/>
			<point x="244" y="604" type="line"/>
			<point x="314" y="513" type="line"/>
			<point x="380" y="558" type="line"/>
			<point x="314" y="657" type="line"/>
			<point x="428" y="698" type="line"/>
		</contour>
	</outline>
</glyph>
<glyph name="period" format="2">
	<advance width="349"/>
	<unicode hex="002E"/>
	<outline>
		<contour>
			<point x="174" y="214" type="curve"/>
			<point x="174" y="214" type="line"/>
			<point x="111" y="214"/>
			<point x="60" y="163"/>
			<point x="60" y="99" type="curve"/>
			<point x="60" y="36"/>
			<point x="111" y="-15"/>
			<point x="174" y="-15" type="curve"/>
			<point x="238" y="-15"/>
			<point x="289" y="36"/>
			<point x="289" y="99" type="curve"/>
			<point x="289" y="163"/>
			<point x="238" y="214"/>
		</contour>
	</outline>
</glyph>
<glyph name="slash" format="2">
	<advance width="611"/>
	<unicode hex="002F"/>
	<outline>
		<contour>
			<point x="588" y="860" type="line"/>
			<point x="435" y="860" type="line"/>
			<point x="23" y="-120" type="line"/>
			<point x="176" y="-120" type="line"/>
		</contour>
	</outline>
</glyph>
<glyph name="zero" format="2">
	<advance width="727"/>
	<unicode hex="0030"/>
	<outline>
		<contour>
			<point x="28" y="412" type="curve"/>
			<point x="28" y="412" type="line"/>
			<point x="28" y="106"/>
			<point x="187" y="-15"/>
			<point x="364" y="-15" type="curve"/>
			<point x="541" y="-15"/>
			<point x="699" y="106"/>
			<point x="699" y="412" type="curve"/>
			<point x="699" y="698"/>
			<point x="541" y="840"/>
			<point x="364" y="840" type="curve"/>
			<point x="187" y="840"/>
			<point x="28" y="698"/>
		</contour>
		<contour>
			<point x="218" y="412" type="curve"/>
			<point x="218" y="412" type="line"/>
			<point x="218" y="578"/>
			<point x="273" y="675"/>
			<point x="364" y="675" type="curve"/>
			<point x="454" y="675"/>
			<point x="509" y="579"/>
			<point x="509" y="412" type="curve"/>
			<point x="509" y="234"/>
			<point x="454" y="150"/>
			<point x="364" y="150" type="curve"/>
			<point x="273" y="150"/>
			<point x="218" y="234"/>
		</contour>
	</outline>
</glyph>
<glyph name="two" format="2">
	<advance width="753"/>
	<unicode hex="0032"/>
	<outline>
		<contour>
			<point x="363" y="681" type="curve"/>
			<point x="363" y="681" type="line"/>
			<point x="473" y="681"/>
			<point x="480" y="580"/>
			<point x="480" y="550" type="curve"/>
			<point x="480" y="398"/>
			<point x="55" y="47"/>
			<point x="55" y="47" type="curve"/>
			<point x="55" y="0" type="line"/>
			<point x="698" y="0" type="line"/>
			<point x="698" y="165" type="line"/>
			<point x="392" y="165" type="line" smooth="yes"/>
			<point x="392" y="165"/>
			<point x="683" y="357"/>
			<point x="683" y="550" type="curve"/>
			<point x="683" y="654"/>
			<point x="646" y="840"/>
			<point x="363" y="840" type="curve"/>
			<point x="139" y="840"/>
			<point x="59" y="600"/>
			<point x="59" y="600" type="curve"/>
			<point x="216" y="524" type="line"/>
			<point x="216" y="524"/>
			<point x="273" y="681"/>
		</contour>
	</outline>
</glyph>
<glyph name="three" format="2">
	<advance width="665"/>
	<unicode hex="0033"/>
	<outline>
		<contour>
			<point x="57" y="659" type="curve"/>
			<point x="57" y="659" type="line"/>
			<point x="205" y="587" type="line"/>
			<point x="205" y="587"/>
			<point x="224" y="689"/>
			<point x="328" y="689" type="curve"/>
			<point x="381" y="689"/>
			<point x="430" y="651"/>
			<point x="430" y="598" type="curve"/>
			<point x="430" y="538"/>
			<point x="381" y="494"/>
			<point x="331" y="494" type="curve"/>
			<point x="290" y="494" type="line"/>
			<point x="290" y="371" type="line"/>
			<point x="290" y="371"/>
			<point x="306" y="377"/>
			<point x="326" y="377" type="curve"/>
			<point x="392" y="377"/>
			<point x="445" y="327"/>
			<point x="445" y="256" type="curve"/>
			<point x="445" y="186"/>
			<point x="395" y="147"/>
			<point x="326" y="147" type="curve"/>
			<point x="202" y="147"/>
			<point x="191" y="273"/>
			<point x="191" y="273" type="curve"/>
			<point x="17" y="188" type="line"/>
			<point x="17" y="188"/>
			<point x="73" y="-15"/>
			<point x="327" y="-15" type="curve"/>
			<point x="504" y="-15"/>
			<point x="633" y="98"/>
			<point x="633" y="256" type="curve"/>
			<point x="633" y="343"/>
			<point x="592" y="406"/>
			<point x="528" y="445" type="curve"/>
			<point x="573" y="480"/>
			<point x="601" y="532"/>
			<point x="601" y="600" type="curve"/>
			<point x="601" y="740"/>
			<point x="487" y="840"/>
			<point x="330" y="840" type="curve"/>
			<point x="99" y="840"/>
			<point x="57" y="659"/>
		</contour>
	</outline>
</glyph>
<glyph name="four" format="2">
	<advance width="666"/>
	<unicode hex="0034"/>
	<outline>
		<contour>
			<point x="557" y="339" type="line"/>
			<point x="557" y="825" type="line"/>
			<point x="371" y="825" type="line"/>
			<point x="-25" y="230" type="line"/>
			<point x="-25" y="174" type="line"/>
			<point x="381" y="174" type="line"/>
			<point x="381" y="0" type="line"/>
			<point x="557" y="0" type="line"/>
			<point x="557" y="174" type="line"/>
			<point x="653" y="174" type="line"/>
			<point x="653" y="339" type="line"/>
		</contour>
		<contour>
			<point x="381" y="574" type="line"/>
			<point x="381" y="339" type="line"/>
			<point x="232" y="339" type="line"/>
			<point x="379" y="574" type="line"/>
		</contour>
	</outline>
</glyph>
<glyph name="five" format="2">
	<advance width="641"/>
	<unicode hex="0035"/>
	<outline>
		<contour>
			<point x="167" y="236" type="curve"/>
			<point x="167" y="236" type="line"/>
			<point x="18" y="164" type="line"/>
			<point x="49" y="80"/>
			<point x="136" y="-15"/>
			<point x="312" y="-15" type="curve"/>
			<point x="489" y="-15"/>
			<point x="618" y="98"/>
			<point x="618" y="256" type="curve"/>
			<point x="618" y="485"/>
			<point x="466" y="545"/>
			<point x="310" y="546" type="curve"/>
			<point x="302" y="546"/>
			<point x="294" y="545"/>
			<point x="287" y="545" type="curve"/>
			<point x="305" y="660" type="line"/>
			<point x="565" y="660" type="line"/>
			<point x="565" y="825" type="line"/>
			<point x="144" y="825" type="line"/>
			<point x="75" y="381" type="line"/>
			<point x="100" y="392"/>
			<point x="147" y="407"/>
			<point x="216" y="407" type="curve"/>
			<point x="323" y="407"/>
			<point x="430" y="371"/>
			<point x="430" y="262" type="curve"/>
			<point x="430" y="192"/>
			<point x="380" y="142"/>
			<point x="312" y="142" type="curve"/>
			<point x="226" y="142"/>
			<point x="182" y="185"/>
		</contour>
	</outline>
</glyph>
<glyph name="six" format="2">
	<advance width="689"/>
	<unicode hex="0036"/>
	<outline>
		<contour>
			<point x="337" y="542" type="curve"/>
			<point x="580" y="825" type="line"/>
			<point x="348" y="825" type="line"/>
			<point x="154" y="594" type="line"/>
			<point x="68" y="477"/>
			<point x="24" y="410"/>
			<point x="24" y="265" type="curve"/>
			<point x="24" y="107"/>
			<point x="168" y="-15"/>
			<point x="353" y="-15" type="curve"/>
			<point x="502" y="-15"/>
			<point x="659" y="70"/>
			<point x="659" y="265" type="curve"/>
			<point x="659" y="457"/>
			<point x="509" y="554"/>
			<point x="396" y="554" type="curve"/>
			<point x="358" y="554"/>
			<point x="337" y="542"/>
		</contour>
		<contour>
			<point x="219" y="265" type="curve"/>
			<point x="219" y="265" type="line"/>
			<point x="219" y="339"/>
			<point x="275" y="393"/>
			<point x="344" y="393" type="curve"/>
			<point x="415" y="393"/>
			<point x="471" y="339"/>
			<point x="471" y="265" type="curve"/>
			<point x="471" y="193"/>
			<point x="417" y="140"/>
			<point x="344" y="140" type="curve"/>
			<point x="271" y="140"/>
			<point x="219" y="193"/>
		</contour>
	</outline>
</glyph>
<glyph name="seven" format="2">
	<advance width="688"/>
	<unicode hex="0037"/>
	<outline>
		<contour>
			<point x="713" y="825" type="line"/>
			<point x="80" y="825" type="line"/>
			<point x="80" y="660" type="line"/>
			<point x="435" y="660" type="line"/>
			<point x="55" y="0" type="line"/>
			<point x="277" y="0" type="line"/>
			<point x="713" y="770" type="line"/>
		</contour>
	</outline>
</glyph>
<glyph name="eight" format="2">
	<advance width="687"/>
	<unicode hex="0038"/>
	<outline>
		<contour>
			<point x="613" y="632" type="curve"/>
			<point x="613" y="632" type="line"/>
			<point x="613" y="754"/>
			<point x="484" y="840"/>
			<point x="343" y="840" type="curve"/>
			<point x="207" y="840"/>
			<point x="70" y="754"/>
			<point x="70" y="632" type="curve"/>
			<point x="70" y="541"/>
			<point x="116" y="481"/>
			<point x="179" y="445" type="curve"/>
			<point x="96" y="407"/>
			<point x="35" y="335"/>
			<point x="35" y="222" type="curve"/>
			<point x="35" y="83"/>
			<point x="184" y="-15"/>
			<point x="344" y="-15" type="curve"/>
			<point x="499" y="-15"/>
			<point x="652" y="83"/>
			<point x="652" y="222" type="curve"/>
			<point x="652" y="335"/>
			<point x="590" y="407"/>
			<point x="507" y="445" type="curve"/>
			<point x="569" y="481"/>
			<point x="613" y="541"/>
		</contour>
		<contour>
			<point x="239" y="252" type="curve"/>
			<point x="239" y="252" type="line"/>
			<point x="239" y="314"/>
			<point x="284" y="357"/>
			<point x="343" y="357" type="curve"/>
			<point x="401" y="357"/>
			<point x="448" y="314"/>
			<point x="448" y="252" type="curve"/>
			<point x="448" y="191"/>
			<point x="403" y="147"/>
			<point x="343" y="147" type="curve"/>
			<point x="281" y="147"/>
			<point x="239" y="191"/>
		</contour>
		<contour>
			<point x="435" y="605" type="curve"/>
			<point x="435" y="605" type="line"/>
			<point x="435" y="550"/>
			<point x="397" y="513"/>
			<point x="344" y="513" type="curve"/>
			<point x="293" y="513"/>
			<point x="251" y="550"/>
			<point x="251" y="605" type="curve"/>
			<point x="251" y="658"/>
			<point x="291" y="698"/>
			<point x="344" y="698" type="curve"/>
			<point x="398" y="698"/>
			<point x="435" y="658"/>
		</contour>
	</outline>
</glyph>
<glyph name="nine" format="2">
	<advance width="689"/>
	<unicode hex="0039"/>
	<outline>
		<contour>
			<point x="352" y="283" type="curve"/>
			<point x="109" y="0" type="line"/>
			<point x="341" y="0" type="line"/>
			<point x="535" y="231" type="line"/>
			<point x="621" y="348"/>
			<point x="665" y="415"/>
			<point x="665" y="560" type="curve"/>
			<point x="665" y="718"/>
			<point x="521" y="840"/>
			<point x="336" y="840" type="curve"/>
			<point x="187" y="840"/>
			<point x="30" y="755"/>
			<point x="30" y="560" type="curve"/>
			<point x="30" y="368"/>
			<point x="180" y="271"/>
			<point x="293" y="271" type="curve"/>
			<point x="331" y="271"/>
			<point x="352" y="283"/>
		</contour>
		<contour>
			<point x="470" y="560" type="curve"/>
			<point x="470" y="560" type="line"/>
			<point x="470" y="486"/>
			<point x="414" y="432"/>
			<point x="345" y="432" type="curve"/>
			<point x="274" y="432"/>
			<point x="218" y="486"/>
			<point x="218" y="560" type="curve"/>
			<point x="218" y="632"/>
			<point x="272" y="685"/>
			<point x="345" y="685" type="curve"/>
			<point x="418" y="685"/>
			<point x="470" y="632"/>
		</contour>
	</outline>
</glyph>
<glyph name="colon" format="2">
	<advance width="349"/>
	<unicode hex="003A"/>
	<outline>
		<contour>
			<point x="174" y="214" type="curve"/>
			<point x="174" y="214" type="line"/>
			<point x="111" y="214"/>
			<point x="60" y="163"/>
			<point x="60" y="99" type="curve"/>
			<point x="60" y="36"/>
			<point x="111" y="-15"/>
			<point x="174" y="-15" type="curve"/>
			<point x="238" y="-15"/>
			<point x="289" y="36"/>
			<point x="289" y="99" type="curve"/>
			<point x="289" y="163"/>
			<point x="238" y="214"/>
		</contour>
		<contour>
			<point x="174" y="554" type="curve"/>
			<point x="174" y="554" type="line"/>
			<point x="111" y="554"/>
			<point x="60" y="503"/>
			<point x="60" y="439" type="curve"/>
			<point x="60" y="376"/>
			<point x="111" y="325"/>
			<point x="174" y="325" type="curve"/>
			<point x="238" y="325"/>
			<point x="289" y="376"/>
			<point x="289" y="439" type="curve"/>
			<point x="289" y="503"/>
			<point x="238" y="554"/>
		</contour>
	</outline>
</glyph>
<glyph name="semicolon" format="2">
	<advance width="349"/>
	<unicode hex="003B"/>
	<outline>
		<contour>
			<point x="174" y="554" type="curve"/>
			<point x="174" y="554" type="line"/>
			<point x="111" y="554"/>
			<point x="60" y="503"/>
			<point x="60" y="439" type="curve"/>
			<point x="60" y="376"/>
			<point x="111" y="325"/>
			<point x="174" y="325" type="curve"/>
			<point x="238" y="325"/>
			<point x="289" y="376"/>
			<point x="289" y="439" type="curve"/>
			<point x="289" y="503"/>
			<point x="238" y="554"/>
		</contour>
		<contour>
			<point x="174" y="214" type="curve"/>
			<point x="174" y="214" type="line"/>
			<point x="238" y="214"/>
			<point x="289" y="163"/>
			<point x="289" y="99" type="curve"/>
			<point x="289" y="-22"/>
			<point x="203" y="-120"/>
			<point x="121" y="-188" type="curve"/>
			<point x="70" y="-146" type="line"/>
			<point x="70" y="-146"/>
			<point x="130" y="-89"/>
			<point x="146" y="-6" type="curve"/>
			<point x="97" y="6"/>
			<point x="60" y="46"/>
			<point x="60" y="99" type="curve"/>
			<point x="60" y="163"/>
			<point x="111" y="214"/>
		</contour>
	</outline>
</glyph>
<glyph name="equal" format="2">
	<advance width="633"/>
	<unicode hex="003D"/>
	<outline>
		<contour>
			<point x="60" y="611" type="line"/>
			<point x="60" y="458" type="line"/>
			<point x="573" y="458" type="line"/>
			<point x="573" y="611" type="line"/>
		</contour>
		<contour>
			<point x="60" y="371" type="line"/>
			<point x="60" y="218" type="line"/>
			<point x="573" y="218" type="line"/>
			<point x="573" y="371" type="line"/>
		</contour>
	</outline>
</glyph>
<glyph name="greater" format="2">
	<advance width="662"/>
	<unicode hex="003E"/>
	<outline>
		<contour>
			<point x="55" y="277" type="line"/>
			<point x="55" y="135" type="line"/>
			<point x="602" y="357" type="line"/>
			<point x="602" y="475" type="line"/>
			<point x="55" y="697" type="line"/>
			<point x="55" y="555" type="line"/>
			<point x="413" y="415" type="line"/>
		</contour>
	</outline>
</glyph>
<glyph name="question" format="2">
	<advance width="596"/>
	<unicode hex="003F"/>
	<outline>
		<contour>
			<point x="23" y="651" type="curve"/>
			<point x="23" y="651" type="line"/>
			<point x="170" y="580" type="line"/>
			<point x="181" y="623"/>
			<point x="216" y="683"/>
			<point x="288" y="683" type="curve"/>
			<point x="333" y="683"/>
			<point x="369" y="649"/>
			<point x="369" y="601" type="curve"/>
			<point x="369" y="530"/>
			<point x="312" y="527"/>
			<point x="251" y="488" type="curve"/>
			<point x="206" y="459"/>
			<point x="204" y="423"/>
			<point x="204" y="379" type="curve"/>
			<point x="204" y="270" type="line"/>
			<point x="369" y="270" type="line"/>
			<point x="369" y="326" type="line" smooth="yes"/>
			<point x="369" y="359"/>
			<point x="370" y="387"/>
			<point x="404" y="402" type="curve"/>
			<point x="500" y="443"/>
			<point x="573" y="503"/>
			<point x="573" y="601" type="curve"/>
			<point x="573" y="742"/>
			<point x="439" y="840"/>
			<point x="289" y="840" type="curve"/>
			<point x="66" y="840"/>
			<point x="23" y="656"/>
		</contour>
		<contour>
			<point x="286" y="214" type="curve"/>
			<point x="286" y="214" type="line"/>
			<point x="223" y="214"/>
			<point x="172" y="163"/>
			<point x="172" y="99" type="curve"/>
			<point x="172" y="36"/>
			<point x="223" y="-15"/>
			<point x="286" y="-15" type="curve"/>
			<point x="350" y="-15"/>
			<point x="401" y="36"/>
			<point x="401" y="99" type="curve"/>
			<point x="401" y="163"/>
			<point x="350" y="214"/>
		</contour>
	</outline>
</glyph>
<glyph name="B" format="2">
	<advance width="666"/>
	<unicode hex="0042"/>
	<outline>
		<contour>
			<point x="316" y="825" type="curve"/>
			<point x="60" y="825" type="line"/>
			<point x="60" y="0" type="line"/>
			<point x="373" y="0" type="line" smooth="yes"/>
			<point x="544" y="0"/>
			<point x="643" y="94"/>
			<point x="643" y="230" type="curve"/>
			<point x="643" y="363"/>
			<point x="570" y="420"/>
			<point x="467" y="438" type="curve"/>
			<point x="537" y="474"/>
			<point x="570" y="539"/>
			<point x="570" y="615" type="curve"/>
			<point x="570" y="772"/>
			<point x="458" y="825"/>
		</contour>
		<contour>
			<point x="307" y="145" type="curve"/>
			<point x="248" y="145" type="line"/>
			<point x="248" y="340" type="line"/>
			<point x="307" y="340" type="line" smooth="yes"/>
			<point x="396" y="340"/>
			<point x="445" y="313"/>
			<point x="445" y="237" type="curve"/>
			<point x="445" y="172"/>
			<point x="396" y="145"/>
		</contour>
		<contour>
			<point x="263" y="502" type="curve"/>
			<point x="248" y="502" type="line"/>
			<point x="248" y="680" type="line"/>
			<point x="263" y="680" type="line" smooth="yes"/>
			<point x="345" y="680"/>
			<point x="388" y="655"/>
			<point x="388" y="596" type="curve"/>
			<point x="388" y="527"/>
			<point x="344" y="502"/>
		</contour>
	</outline>
</glyph>
<glyph name="D" format="2">
	<advance width="738"/>
	<unicode hex="0044"/>
	<outline>
		<contour>
			<point x="299" y="825" type="curve"/>
			<point x="60" y="825" type="line"/>
			<point x="60" y="0" type="line"/>
			<point x="299" y="0" type="line" smooth="yes"/>
			<point x="526" y="0"/>
			<point x="715" y="172"/>
			<point x="715" y="413" type="curve"/>
			<point x="715" y="653"/>
			<point x="525" y="825"/>
		</contour>
		<contour>
			<point x="248" y="168" type="line"/>
			<point x="248" y="657" type="line"/>
			<point x="277" y="657" type="line" smooth="yes"/>
			<point x="417" y="657"/>
			<point x="512" y="550"/>
			<point x="512" y="412" type="curve"/>
			<point x="511" y="274"/>
			<point x="416" y="168"/>
			<point x="277" y="168" type="curve"/>
		</contour>
	</outline>
</glyph>
<glyph name="E" format="2">
	<advance width="580"/>
	<unicode hex="0045"/>
	<outline>
		<contour>
			<point x="532" y="825" type="line"/>
			<point x="60" y="825" type="line"/>
			<point x="60" y="0" type="line"/>
			<point x="532" y="0" type="line"/>
			<point x="532" y="165" type="line"/>
			<point x="248" y="165" type="line"/>
			<point x="248" y="331" type="line"/>
			<point x="520" y="331" type="line"/>
			<point x="520" y="496" type="line"/>
			<point x="248" y="496" type="line"/>
			<point x="248" y="660" type="line"/>
			<point x="532" y="660" type="line"/>
		</contour>
	</outline>
</glyph>
<glyph name="F" format="2">
	<advance width="567"/>
	<unicode hex="0046"/>
	<outline>
		<contour>
			<point x="537" y="825" type="line"/>
			<point x="60" y="825" type="line"/>
			<point x="60" y="0" type="line"/>
			<point x="248" y="0" type="line"/>
			<point x="248" y="331" type="line"/>
			<point x="515" y="331" type="line"/>
			<point x="515" y="496" type="line"/>
			<point x="248" y="496" type="line"/>
			<point x="248" y="660" type="line"/>
			<point x="537" y="660" type="line"/>
		</contour>
	</outline>
</glyph>
<glyph name="H" format="2">
	<advance width="762"/>
	<unicode hex="0048"/>
	<outline>
		<contour>
			<point x="248" y="331" type="line"/>
			<point x="514" y="331" type="line"/>
			<point x="514" y="0" type="line"/>
			<point x="702" y="0" type="line"/>
			<point x="702" y="825" type="line"/>
			<point x="514" y="825" type="line"/>
			<point x="514" y="496" type="line"/>
			<point x="248" y="496" type="line"/>
			<point x="248" y="825" type="line"/>
			<point x="60" y="825" type="line"/>
			<point x="60" y="0" type="line"/>
			<point x="248" y="0" type="line"/>
		</contour>
	</outline>
</glyph>
<glyph name="I" format="2">
	<advance width="308"/>
	<unicode hex="0049"/>
	<outline>
		<contour>
			<point x="248" y="825" type="line"/>
			<point x="60" y="825" type="line"/>
			<point x="60" y="0" type="line"/>
			<point x="248" y="0" type="line"/>
		</contour>
	</outline>
</glyph>
<glyph name="J" format="2">
	<advance width="469"/>
	<unicode hex="004A"/>
	<outline>
		<contour>
			<point x="419" y="233" type="curve"/>
			<point x="419" y="233" type="line"/>
			<point x="419" y="825" type="line"/>
			<point x="231" y="825" type="line"/>
			<point x="231" y="281" type="line" smooth="yes"/>
			<point x="231" y="198"/>
			<point x="190" y="165"/>
			<point x="136" y="165" type="curve"/>
			<point x="88" y="165"/>
			<point x="29" y="221"/>
			<point x="29" y="221" type="curve"/>
			<point x="-31" y="64" type="line"/>
			<point x="-31" y="64"/>
			<point x="44" y="-15"/>
			<point x="162" y="-15" type="curve"/>
			<point x="327" y="-15"/>
			<point x="419" y="71"/>
		</contour>
	</outline>
</glyph>
<glyph name="L" format="2">
	<advance width="565"/>
	<unicode hex="004C"/>
	<outline>
		<contour>
			<point x="248" y="825" type="line"/>
			<point x="60" y="825" type="line"/>
			<point x="60" y="0" type="line"/>
			<point x="532" y="0" type="line"/>
			<point x="532" y="165" type="line"/>
			<point x="248" y="165" type="line"/>
		</contour>
	</outline>
</glyph>
<glyph name="N" format="2">
	<advance width="826"/>
	<unicode hex="004E"/>
	<outline>
		<contour>
			<point x="248" y="512" type="line"/>
			<point x="250" y="512" type="line"/>
			<point x="578" y="0" type="line"/>
			<point x="766" y="0" type="line"/>
			<point x="766" y="825" type="line"/>
			<point x="578" y="825" type="line"/>
			<point x="578" y="313" type="line"/>
			<point x="576" y="313" type="line"/>
			<point x="248" y="825" type="line"/>
			<point x="60" y="825" type="line"/>
			<point x="60" y="0" type="line"/>
			<point x="248" y="0" type="line"/>
		</contour>
	</outline>
</glyph>
<glyph name="P" format="2">
	<advance width="666"/>
	<unicode hex="0050"/>
	<outline>
		<contour>
			<point x="361" y="825" type="curve"/>
			<point x="60" y="825" type="line"/>
			<point x="60" y="0" type="line"/>
			<point x="248" y="0" type="line"/>
			<point x="248" y="306" type="line"/>
			<point x="361" y="306" type="line" smooth="yes"/>
			<point x="522" y="306"/>
			<point x="643" y="401"/>
			<point x="643" y="571" type="curve"/>
			<point x="643" y="742"/>
			<point x="522" y="825"/>
		</contour>
		<contour>
			<point x="301" y="456" type="curve"/>
			<point x="248" y="456" type="line"/>
			<point x="248" y="675" type="line"/>
			<point x="301" y="675" type="line" smooth="yes"/>
			<point x="375" y="675"/>
			<point x="445" y="650"/>
			<point x="445" y="565" type="curve"/>
			<point x="445" y="481"/>
			<point x="375" y="456"/>
		</contour>
	</outline>
</glyph>
<glyph name="Q" format="2">
	<advance width="867"/>
	<unicode hex="0051"/>
	<outline>
		<contour>
			<point x="216" y="-105" type="curve"/>
			<point x="216" y="-105" type="line"/>
			<point x="261" y="-173" type="line"/>
			<point x="261" y="-173"/>
			<point x="305" y="-127"/>
			<point x="383" y="-127" type="curve"/>
			<point x="510" y="-127"/>
			<point x="561" y="-205"/>
			<point x="684" y="-205" type="curve"/>
			<point x="815" y="-205"/>
			<point x="868" y="-93"/>
			<point x="868" y="-93" type="curve"/>
			<point x="809" y="34" type="line"/>
			<point x="809" y="34"/>
			<point x="770" y="-20"/>
			<point x="685" y="-20" type="curve"/>
			<point x="636" y="-20"/>
			<point x="576" y="-1"/>
			<point x="557" y="-1" type="curve"/>
			<point x="557" y="3" type="line"/>
			<point x="728" y="55"/>
			<point x="844" y="216"/>
			<point x="844" y="413" type="curve"/>
			<point x="844" y="654"/>
			<point x="663" y="840"/>
			<point x="434" y="840" type="curve"/>
			<point x="207" y="840"/>
			<point x="23" y="654"/>
			<point x="23" y="413" type="curve"/>
			<point x="23" y="201"/>
			<point x="152" y="31"/>
			<point x="348" y="-7" type="curve"/>
			<point x="348" y="-11" type="line"/>
			<point x="288" y="-11"/>
			<point x="216" y="-105"/>
		</contour>
		<contour>
			<point x="226" y="413" type="curve"/>
			<point x="226" y="413" type="line"/>
			<point x="226" y="536"/>
			<point x="289" y="651"/>
			<point x="434" y="651" type="curve"/>
			<point x="580" y="651"/>
			<point x="641" y="536"/>
			<point x="641" y="413" type="curve"/>
			<point x="641" y="290"/>
			<point x="584" y="175"/>
			<point x="434" y="175" type="curve"/>
			<point x="280" y="175"/>
			<point x="226" y="290"/>
		</contour>
	</outline>
</glyph>
<glyph name="T" format="2">
	<advance width="596"/>
	<unicode hex="0054"/>
	<outline>
		<contour>
			<point x="8" y="660" type="line"/>
			<point x="204" y="660" type="line"/>
			<point x="204" y="0" type="line"/>
			<point x="392" y="0" type="line"/>
			<point x="392" y="660" type="line"/>
			<point x="588" y="660" type="line"/>
			<point x="588" y="825" type="line"/>
			<point x="8" y="825" type="line"/>
		</contour>
	</outline>
</glyph>
<glyph name="U" format="2">
	<advance width="744"/>
	<unicode hex="0055"/>
	<outline>
		<contour>
			<point x="694" y="825" type="line"/>
			<point x="506" y="825" type="line"/>
			<point x="506" y="348" type="line" smooth="yes"/>
			<point x="506" y="210"/>
			<point x="464" y="170"/>
			<point x="372" y="170" type="curve"/>
			<point x="280" y="170"/>
			<point x="238" y="210"/>
			<point x="238" y="348" type="curve"/>
			<point x="238" y="825" type="line"/>
			<point x="50" y="825" type="line"/>
			<point x="50" y="293" type="line" smooth="yes"/>
			<point x="50" y="89"/>
			<point x="162" y="-15"/>
			<point x="372" y="-15" type="curve"/>
			<point x="582" y="-15"/>
			<point x="694" y="89"/>
			<point x="694" y="293" type="curve"/>
		</contour>
	</outline>
</glyph>
<glyph name="W" format="2">
	<advance width="1121"/>
	<unicode hex="0057"/>
	<outline>
		<contour>
			<point x="693" y="0" type="line"/>
			<point x="901" y="0" type="line"/>
			<point x="1136" y="825" type="line"/>
			<point x="928" y="825" type="line"/>
			<point x="787" y="259" type="line"/>
			<point x="782" y="259" type="line"/>
			<point x="632" y="825" type="line"/>
			<point x="490" y="825" type="line"/>
			<point x="340" y="259" type="line"/>
			<point x="335" y="259" type="line"/>
			<point x="194" y="825" type="line"/>
			<point x="-15" y="825" type="line"/>
			<point x="220" y="0" type="line"/>
			<point x="429" y="0" type="line"/>
			<point x="561" y="463" type="line"/>
		</contour>
	</outline>
</glyph>
<glyph name="Y" format="2">
	<advance width="736"/>
	<unicode hex="0059"/>
	<outline>
		<contour>
			<point x="-30" y="825" type="line"/>
			<point x="274" y="370" type="line"/>
			<point x="274" y="0" type="line"/>
			<point x="462" y="0" type="line"/>
			<point x="462" y="370" type="line"/>
			<point x="766" y="825" type="line"/>
			<point x="540" y="825" type="line"/>
			<point x="368" y="561" type="line"/>
			<point x="196" y="825" type="line"/>
		</contour>
	</outline>
</glyph>
<glyph name="bracketleft" format="2">
	<advance width="442"/>
	<unicode hex="005B"/>
	<outline>
		<contour>
			<point x="60" y="860" type="line"/>
			<point x="60" y="-260" type="line"/>
			<point x="382" y="-260" type="line"/>
			<point x="382" y="-143" type="line"/>
			<point x="213" y="-143" type="line"/>
			<point x="213" y="743" type="line"/>
			<point x="382" y="743" type="line"/>
			<point x="382" y="860" type="line"/>
		</contour>
	</outline>
</glyph>
<glyph name="asciicircum" format="2">
	<advance width="496"/>
	<unicode hex="005E"/>
	<outline>
		<contour>
			<point x="340" y="605" type="line"/>
			<point x="501" y="605" type="line"/>
			<point x="294" y="840" type="line"/>
			<point x="202" y="840" type="line"/>
			<point x="-5" y="605" type="line"/>
			<point x="156" y="605" type="line"/>
			<point x="248" y="714" type="line"/>
		</contour>
	</outline>
</glyph>
<glyph name="underscore" format="2">
	<advance width="513"/>
	<unicode hex="005F"/>
	<outline>
		<contour>
			<point x="0" y="-15" type="line"/>
			<point x="0" y="-100" type="line"/>
			<point x="513" y="-100" type="line"/>
			<point x="513" y="-15" type="line"/>
		</contour>
	</outline>
</glyph>
<glyph name="b" format="2">
	<advance width="683"/>
	<unicode hex="0062"/>
	<outline>
		<contour>
			<point x="660" y="256" type="curve"/>
			<point x="660" y="256" type="line"/>
			<point x="660" y="406"/>
			<point x="555" y="528"/>
			<point x="405" y="528" type="curve"/>
			<point x="336" y="528"/>
			<point x="279" y="505"/>
			<point x="237" y="464" type="curve"/>
			<point x="237" y="860" type="line"/>
			<point x="60" y="860" type="line"/>
			<point x="60" y="0" type="line"/>
			<point x="235" y="0" type="line"/>
			<point x="235" y="58" type="line"/>
			<point x="237" y="58" type="line"/>
			<point x="275" y="16"/>
			<point x="335" y="-15"/>
			<point x="405" y="-15" type="curve"/>
			<point x="555" y="-15"/>
			<point x="660" y="106"/>
		</contour>
		<contour>
			<point x="472" y="256" type="curve"/>
			<point x="472" y="256" type="line"/>
			<point x="472" y="186"/>
			<point x="424" y="136"/>
			<point x="352" y="136" type="curve"/>
			<point x="283" y="136"/>
			<point x="233" y="186"/>
			<point x="233" y="256" type="curve"/>
			<point x="233" y="327"/>
			<point x="286" y="377"/>
			<point x="352" y="377" type="curve"/>
			<point x="419" y="377"/>
			<point x="472" y="327"/>
		</contour>
	</outline>
</glyph>
<glyph name="f" format="2">
	<advance width="375"/>
	<unicode hex="0066"/>
	<outline>
		<contour>
			<point x="90" y="513" type="line"/>
			<point x="16" y="513" type="line"/>
			<point x="16" y="378" type="line"/>
			<point x="90" y="378" type="line"/>
			<point x="90" y="0" type="line"/>
			<point x="267" y="0" type="line"/>
			<point x="267" y="378" type="line"/>
			<point x="385" y="378" type="line"/>
			<point x="385" y="513" type="line"/>
			<point x="267" y="513" type="line"/>
			<point x="267" y="617" type="line" smooth="yes"/>
			<point x="267" y="688"/>
			<point x="277" y="718"/>
			<point x="322" y="718" type="curve"/>
			<point x="351" y="718"/>
			<point x="375" y="704"/>
			<point x="375" y="704" type="curve"/>
			<point x="437" y="829" type="line"/>
			<point x="437" y="829"/>
			<point x="381" y="875"/>
			<point x="291" y="875" type="curve"/>
			<point x="163" y="875"/>
			<point x="91" y="772"/>
			<point x="90" y="622" type="curve"/>
		</contour>
	</outline>
</glyph>
<glyph name="i" format="2">
	<advance width="302"/>
	<unicode hex="0069"/>
	<outline>
		<contour>
			<point x="60" y="513" type="line"/>
			<point x="237" y="513" type="line"/>
			<point x="237" y="0" type="line"/>
			<point x="60" y="0" type="line"/>
		</contour>
		<contour>
			<point x="151" y="830" type="curve"/>
			<point x="151" y="830" type="line"/>
			<point x="93" y="830"/>
			<point x="46" y="783"/>
			<point x="46" y="725" type="curve"/>
			<point x="46" y="667"/>
			<point x="93" y="620"/>
			<point x="151" y="620" type="curve"/>
			<point x="209" y="620"/>
			<point x="256" y="667"/>
			<point x="256" y="725" type="curve"/>
			<point x="256" y="783"/>
			<point x="209" y="830"/>
		</contour>
	</outline>
</glyph>
<glyph name="k" format="2">
	<advance width="646"/>
	<unicode hex="006B"/>
	<outline>
		<contour>
			<point x="646" y="513" type="line"/>
			<point x="416" y="513" type="line"/>
			<point x="237" y="334" type="line"/>
			<point x="237" y="860" type="line"/>
			<point x="60" y="860" type="line"/>
			<point x="60" y="0" type="line"/>
			<point x="237" y="0" type="line"/>
			<point x="237" y="205" type="line"/>
			<point x="442" y="0" type="line"/>
			<point x="670" y="0" type="line"/>
			<point x="402" y="268" type="line"/>
		</contour>
	</outline>
</glyph>
<glyph name="l" format="2">
	<advance width="297"/>
	<unicode hex="006C"/>
	<outline>
		<contour>
			<point x="60" y="0" type="line"/>
			<point x="237" y="0" type="line"/>
			<point x="237" y="860" type="line"/>
			<point x="60" y="860" type="line"/>
		</contour>
	</outline>
</glyph>
<glyph name="m" format="2">
	<advance width="985"/>
	<unicode hex="006D"/>
	<outline>
		<contour>
			<point x="60" y="0" type="line"/>
			<point x="237" y="0" type="line"/>
			<point x="237" y="300" type="line" smooth="yes"/>
			<point x="237" y="341"/>
			<point x="260" y="386"/>
			<point x="319" y="386" type="curve"/>
			<point x="382" y="386"/>
			<point x="409" y="341"/>
			<point x="409" y="290" type="curve"/>
			<point x="409" y="0" type="line"/>
			<point x="586" y="0" type="line"/>
			<point x="586" y="306" type="line"/>
			<point x="588" y="345"/>
			<point x="612" y="386"/>
			<point x="668" y="386" type="curve"/>
			<point x="731" y="386"/>
			<point x="758" y="341"/>
			<point x="758" y="290" type="curve"/>
			<point x="758" y="0" type="line"/>
			<point x="935" y="0" type="line"/>
			<point x="935" y="338" type="line" smooth="yes"/>
			<point x="935" y="481"/>
			<point x="829" y="528"/>
			<point x="735" y="528" type="curve"/>
			<point x="679" y="528"/>
			<point x="619" y="499"/>
			<point x="565" y="434" type="curve"/>
			<point x="529" y="503"/>
			<point x="454" y="528"/>
			<point x="386" y="528" type="curve"/>
			<point x="330" y="528"/>
			<point x="279" y="499"/>
			<point x="239" y="459" type="curve"/>
			<point x="237" y="459" type="line"/>
			<point x="237" y="513" type="line"/>
			<point x="60" y="513" type="line"/>
		</contour>
	</outline>
</glyph>
<glyph name="n" format="2">
	<advance width="661"/>
	<unicode hex="006E"/>
	<outline>
		<contour>
			<point x="60" y="0" type="line"/>
			<point x="237" y="0" type="line"/>
			<point x="237" y="290" type="line" smooth="yes"/>
			<point x="237" y="341"/>
			<point x="289" y="390"/>
			<point x="342" y="390" type="curve"/>
			<point x="399" y="390"/>
			<point x="434" y="341"/>
			<point x="434" y="290" type="curve"/>
			<point x="434" y="0" type="line"/>
			<point x="611" y="0" type="line"/>
			<point x="611" y="338" type="line" smooth="yes"/>
			<point x="611" y="481"/>
			<point x="480" y="528"/>
			<point x="386" y="528" type="curve"/>
			<point x="330" y="528"/>
			<point x="279" y="499"/>
			<point x="239" y="459" type="curve"/>
			<point x="237" y="459" type="line"/>
			<point x="237" y="513" type="line"/>
			<point x="60" y="513" type="line"/>
		</contour>
	</outline>
</glyph>
<glyph name="s" format="2">
	<advance width="492"/>
	<unicode hex="0073"/>
	<outline>
		<contour>
			<point x="283" y="528" type="curve"/>
			<point x="283" y="528" type="line"/>
			<point x="148" y="528"/>
			<point x="59" y="468"/>
			<point x="59" y="363" type="curve"/>
			<point x="59" y="286"/>
			<point x="111" y="250"/>
			<point x="163" y="223" type="curve"/>
			<point x="221" y="193"/>
			<point x="277" y="190"/>
			<point x="277" y="153" type="curve"/>
			<point x="277" y="119"/>
			<point x="247" y="116"/>
			<point x="222" y="116" type="curve"/>
			<point x="165" y="116"/>
			<point x="95" y="175"/>
			<point x="95" y="175" type="curve"/>
			<point x="23" y="54" type="line"/>
			<point x="23" y="54"/>
			<point x="97" y="-15"/>
			<point x="221" y="-15" type="curve"/>
			<point x="326" y="-15"/>
			<point x="464" y="9"/>
			<point x="464" y="160" type="curve"/>
			<point x="464" y="265"/>
			<point x="376" y="303"/>
			<point x="308" y="324" type="curve"/>
			<point x="264" y="338"/>
			<point x="228" y="346"/>
			<point x="228" y="373" type="curve"/>
			<point x="228" y="397"/>
			<point x="244" y="404"/>
			<point x="283" y="404" type="curve"/>
			<point x="337" y="404"/>
			<point x="397" y="372"/>
			<point x="397" y="372" type="curve"/>
			<point x="455" y="488" type="line"/>
			<point x="455" y="488"/>
			<point x="382" y="528"/>
		</contour>
	</outline>
</glyph>
<glyph name="t" format="2">
	<advance width="395"/>
	<unicode hex="0074"/>
	<outline>
		<contour>
			<point x="90" y="513" type="line"/>
			<point x="16" y="513" type="line"/>
			<point x="16" y="378" type="line"/>
			<point x="90" y="378" type="line"/>
			<point x="90" y="181" type="line" smooth="yes"/>
			<point x="90" y="90"/>
			<point x="124" y="-15"/>
			<point x="265" y="-15" type="curve"/>
			<point x="338" y="-15"/>
			<point x="395" y="17"/>
			<point x="395" y="17" type="curve"/>
			<point x="351" y="160" type="line"/>
			<point x="351" y="160"/>
			<point x="330" y="144"/>
			<point x="307" y="144" type="curve"/>
			<point x="279" y="144"/>
			<point x="267" y="167"/>
			<point x="267" y="215" type="curve"/>
			<point x="267" y="378" type="line"/>
			<point x="375" y="378" type="line"/>
			<point x="375" y="513" type="line"/>
			<point x="267" y="513" type="line"/>
			<point x="267" y="704" type="line"/>
			<point x="90" y="704" type="line"/>
		</contour>
	</outline>
</glyph>
<glyph name="v" format="2">
	<advance width="630"/>
	<unicode hex="0076"/>
	<outline>
		<contour>
			<point x="190" y="513" type="line"/>
			<point x="-20" y="513" type="line"/>
			<point x="255" y="0" type="line"/>
			<point x="375" y="0" type="line"/>
			<point x="650" y="513" type="line"/>
			<point x="440" y="513" type="line"/>
			<point x="315" y="234" type="line"/>
		</contour>
	</outline>
</glyph>
<glyph name="w" format="2">
	<advance width="986"/>
	<unicode hex="0077"/>
	<outline>
		<contour>
			<point x="375" y="0" type="line"/>
			<point x="493" y="265" type="line"/>
			<point x="611" y="0" type="line"/>
			<point x="731" y="0" type="line"/>
			<point x="1006" y="513" type="line"/>
			<point x="802" y="513" type="line"/>
			<point x="677" y="236" type="line"/>
			<point x="554" y="513" type="line"/>
			<point x="432" y="513" type="line"/>
			<point x="309" y="236" type="line"/>
			<point x="184" y="513" type="line"/>
			<point x="-20" y="513" type="line"/>
			<point x="255" y="0" type="line"/>
		</contour>
	</outline>
</glyph>
<glyph name="x" format="2">
	<advance width="654"/>
	<unicode hex="0078"/>
	<outline>
		<contour>
			<point x="654" y="0" type="line"/>
			<point x="435" y="268" type="line"/>
			<point x="623" y="513" type="line"/>
			<point x="416" y="513" type="line"/>
			<point x="327" y="394" type="line"/>
			<point x="238" y="513" type="line"/>
			<point x="31" y="513" type="line"/>
			<point x="219" y="268" type="line"/>
			<point x="0" y="0" type="line"/>
			<point x="214" y="0" type="line"/>
			<point x="327" y="145" type="line"/>
			<point x="440" y="0" type="line"/>
		</contour>
	</outline>
</glyph>
<glyph name="y" format="2">
	<advance width="633"/>
	<unicode hex="0079"/>
	<outline>
		<contour>
			<point x="449" y="513" type="line"/>
			<point x="327" y="250" type="line"/>
			<point x="184" y="513" type="line"/>
			<point x="-20" y="513" type="line"/>
			<point x="223" y="80" type="line"/>
			<point x="46" y="-260" type="line"/>
			<point x="250" y="-260" type="line"/>
			<point x="653" y="513" type="line"/>
		</contour>
	</outline>
</glyph>
<glyph name="bar" format="2">
	<advance width="273"/>
	<unicode hex="007C"/>
	<outline>
		<contour>
			<point x="60" y="0" type="line"/>
			<point x="213" y="0" type="line"/>
			<point x="213" y="860" type="line"/>
			<point x="60" y="860" type="line"/>
		</contour>
	</outline>
</glyph>
<glyph name="braceright" format="2">
	<advance width="446"/>
	<unicode hex="007D"/>
	<outline>
		<contour>
			<point x="386" y="253" type="curve"/>
			<point x="386" y="253" type="line"/>
			<point x="386" y="347" type="line"/>
			<point x="343" y="347"/>
			<point x="316" y="366"/>
			<point x="316" y="412" type="curve"/>
			<point x="316" y="679" type="line" smooth="yes"/>
			<point x="316" y="762"/>
			<point x="285" y="860"/>
			<point x="157" y="860" type="curve"/>
			<point x="60" y="860" type="line"/>
			<point x="60" y="732" type="line"/>
			<point x="100" y="732" type="line" smooth="yes"/>
			<point x="135" y="732"/>
			<point x="163" y="704"/>
			<point x="163" y="664" type="curve"/>
			<point x="163" y="407" type="line" smooth="yes"/>
			<point x="163" y="350"/>
			<point x="190" y="318"/>
			<point x="224" y="300" type="curve"/>
			<point x="190" y="282"/>
			<point x="163" y="249"/>
			<point x="163" y="193" type="curve"/>
			<point x="163" y="-64" type="line" smooth="yes"/>
			<point x="163" y="-104"/>
			<point x="135" y="-132"/>
			<point x="100" y="-132" type="curve"/>
			<point x="60" y="-132" type="line"/>
			<point x="60" y="-260" type="line"/>
			<point x="157" y="-260" type="line" smooth="yes"/>
			<point x="285" y="-260"/>
			<point x="316" y="-162"/>
			<point x="316" y="-79" type="curve"/>
			<point x="316" y="188" type="line" smooth="yes"/>
			<point x="316" y="234"/>
			<point x="343" y="253"/>
		</contour>
	</outline>
</glyph>
<glyph name="asciitilde" format="2">
	<advance width="694"/>
	<unicode hex="007E"/>
	<outline>
		<contour>
			<point x="634" y="440" type="curve"/>
			<point x="634" y="440" type="line"/>
			<point x="541" y="521" type="line"/>
			<point x="541" y="521"/>
			<point x="515" y="443"/>
			<point x="457" y="443" type="curve"/>
			<point x="435" y="443"/>
			<point x="410" y="458"/>
			<point x="386" y="474" type="curve"/>
			<point x="345" y="500"/>
			<point x="304" y="528"/>
			<point x="237" y="528" type="curve"/>
			<point x="125" y="528"/>
			<point x="60" y="391"/>
			<point x="60" y="391" type="curve"/>
			<point x="153" y="310" type="line"/>
			<point x="153" y="310"/>
			<point x="179" y="388"/>
			<point x="237" y="388" type="curve"/>
			<point x="261" y="388"/>
			<point x="286" y="372"/>
			<point x="310" y="356" type="curve"/>
			<point x="351" y="329"/>
			<point x="393" y="303"/>
			<point x="457" y="303" type="curve"/>
			<point x="569" y="303"/>
			<point x="634" y="440"/>
		</contour>
	</outline>
</glyph>
<glyph name="exclamdown" format="2">
	<advance width="349"/>
	<unicode hex="00A1"/>
	<outline>
		<contour>
			<point x="174" y="386" type="curve"/>
			<point x="174" y="386" type="line"/>
			<point x="238" y="386"/>
			<point x="289" y="437"/>
			<point x="289" y="501" type="curve"/>
			<point x="289" y="564"/>
			<point x="238" y="615"/>
			<point x="174" y="615" type="curve"/>
			<point x="111" y="615"/>
			<point x="60" y="564"/>
			<point x="60" y="501" type="curve"/>
			<point x="60" y="437"/>
			<point x="111" y="386"/>
		</contour>
		<contour>
			<point x="86" y="-260" type="line"/>
			<point x="263" y="-260" type="line"/>
			<point x="239" y="330" type="line"/>
			<point x="110" y="330" type="line"/>
		</contour>
	</outline>
</glyph>
<glyph name="sterling" format="2">
	<advance width="749"/>
	<unicode hex="00A3"/>
	<outline>
		<contour>
			<point x="157" y="387" type="curve"/>
			<point x="55" y="387" type="line"/>
			<point x="55" y="289" type="line"/>
			<point x="205" y="289" type="line"/>
			<point x="212" y="272"/>
			<point x="217" y="255"/>
			<point x="217" y="236" type="curve"/>
			<point x="217" y="213"/>
			<point x="214" y="197"/>
			<point x="201" y="178" type="curve"/>
			<point x="111" y="178"/>
			<point x="55" y="54"/>
			<point x="55" y="0" type="curve"/>
			<point x="170" y="0" type="line"/>
			<point x="170" y="0"/>
			<point x="176" y="43"/>
			<point x="217" y="43" type="curve"/>
			<point x="311" y="43"/>
			<point x="404" y="-15"/>
			<point x="528" y="-15" type="curve"/>
			<point x="688" y="-15"/>
			<point x="711" y="133"/>
			<point x="711" y="133" type="curve"/>
			<point x="574" y="201" type="line"/>
			<point x="574" y="201"/>
			<point x="564" y="129"/>
			<point x="507" y="129" type="curve"/>
			<point x="433" y="129"/>
			<point x="366" y="162"/>
			<point x="350" y="162" type="curve"/>
			<point x="350" y="162"/>
			<point x="378" y="196"/>
			<point x="378" y="243" type="curve"/>
			<point x="378" y="260"/>
			<point x="377" y="275"/>
			<point x="375" y="289" type="curve"/>
			<point x="512" y="289" type="line"/>
			<point x="512" y="387" type="line"/>
			<point x="339" y="387" type="line"/>
			<point x="317" y="436"/>
			<point x="291" y="476"/>
			<point x="291" y="558" type="curve"/>
			<point x="291" y="634"/>
			<point x="324" y="689"/>
			<point x="386" y="689" type="curve"/>
			<point x="483" y="689"/>
			<point x="502" y="574"/>
			<point x="502" y="574" type="curve"/>
			<point x="660" y="651" type="line"/>
			<point x="660" y="651"/>
			<point x="620" y="841"/>
			<point x="386" y="841" type="curve"/>
			<point x="201" y="841"/>
			<point x="105" y="714"/>
			<point x="105" y="558" type="curve"/>
			<point x="105" y="483"/>
			<point x="129" y="431"/>
		</contour>
	</outline>
</glyph>
<glyph name="yen" format="2">
	<advance width="764"/>
	<unicode hex="00A5"/>
	<outline>
		<contour>
			<point x="75" y="110" type="line"/>
			<point x="288" y="110" type="line"/>
			<point x="288" y="0" type="line"/>
			<point x="476" y="0" type="line"/>
			<point x="476" y="110" type="line"/>
			<point x="688" y="110" type="line"/>
			<point x="688" y="243" type="line"/>
			<point x="476" y="243" type="line"/>
			<point x="476" y="303" type="line"/>
			<point x="688" y="303" type="line"/>
			<point x="688" y="436" type="line"/>
			<point x="520" y="436" type="line"/>
			<point x="780" y="825" type="line"/>
			<point x="554" y="825" type="line"/>
			<point x="382" y="561" type="line"/>
			<point x="210" y="825" type="line"/>
			<point x="-16" y="825" type="line"/>
			<point x="244" y="436" type="line"/>
			<point x="75" y="436" type="line"/>
			<point x="75" y="303" type="line"/>
			<point x="288" y="303" type="line"/>
			<point x="288" y="243" type="line"/>
			<point x="75" y="243" type="line"/>
		</contour>
	</outline>
</glyph>
<glyph name="section" format="2">
	<advance width="640"/>
	<unicode hex="00A7"/>
	<outline>
		<contour>
			<point x="288" y="-275" type="curve"/>
			<point x="288" y="-275" type="line"/>
			<point x="508" y="-275"/>
			<point x="567" y="-152"/>
			<point x="567" y="-66" type="curve"/>
			<point x="567" y="15"/>
			<point x="537" y="65"/>
			<point x="478" y="109" type="curve"/>
			<point x="561" y="146"/>
			<point x="608" y="214"/>
			<point x="612" y="289" type="curve"/>
			<point x="612" y="403"/>
			<point x="536" y="470"/>
			<point x="415" y="527" type="curve"/>
			<point x="328" y="567"/>
			<point x="263" y="597"/>
			<point x="263" y="637" type="curve"/>
			<point x="263" y="668"/>
			<point x="284" y="692"/>
			<point x="326" y="692" type="curve"/>
			<point x="402" y="692"/>
			<point x="407" y="627"/>
			<point x="407" y="627" type="curve"/>
			<point x="567" y="661" type="line"/>
			<point x="567" y="661"/>
			<point x="539" y="840"/>
			<point x="326" y="840" type="curve"/>
			<point x="146" y="840"/>
			<point x="68" y="739"/>
			<point x="68" y="631" type="curve"/>
			<point x="68" y="549"/>
			<point x="97" y="499"/>
			<point x="157" y="456" type="curve"/>
			<point x="74" y="419"/>
			<point x="27" y="351"/>
			<point x="23" y="276" type="curve"/>
			<point x="23" y="162"/>
			<point x="99" y="95"/>
			<point x="220" y="38" type="curve"/>
			<point x="307" y="-2"/>
			<point x="370" y="-31"/>
			<point x="370" y="-72" type="curve"/>
			<point x="370" y="-101"/>
			<point x="349" y="-127"/>
			<point x="288" y="-127" type="curve"/>
			<point x="206" y="-127"/>
			<point x="183" y="-50"/>
			<point x="183" y="-50" type="curve"/>
			<point x="23" y="-84" type="line"/>
			<point x="23" y="-84"/>
			<point x="55" y="-275"/>
		</contour>
		<contour>
			<point x="275" y="389" type="curve"/>
			<point x="275" y="389" type="line"/>
			<point x="299" y="378" type="line"/>
			<point x="304" y="375"/>
			<point x="310" y="373"/>
			<point x="316" y="370" type="curve"/>
			<point x="376" y="342"/>
			<point x="445" y="309"/>
			<point x="448" y="260" type="curve"/>
			<point x="445" y="211"/>
			<point x="402" y="187"/>
			<point x="359" y="176" type="curve"/>
			<point x="336" y="187" type="line"/>
			<point x="331" y="190"/>
			<point x="325" y="192"/>
			<point x="319" y="195" type="curve"/>
			<point x="259" y="223"/>
			<point x="190" y="256"/>
			<point x="187" y="305" type="curve"/>
			<point x="190" y="353"/>
			<point x="233" y="377"/>
		</contour>
	</outline>
</glyph>
<glyph name="copyright" format="2">
	<advance width="901"/>
	<unicode hex="00A9"/>
	<outline>
		<contour>
			<point x="23" y="412" type="curve"/>
			<point x="23" y="412" type="line"/>
			<point x="23" y="177"/>
			<point x="215" y="-15"/>
			<point x="450" y="-15" type="curve"/>
			<point x="686" y="-15"/>
			<point x="878" y="177"/>
			<point x="878" y="412" type="curve"/>
			<point x="878" y="648"/>
			<point x="686" y="840"/>
			<point x="450" y="840" type="curve"/>
			<point x="215" y="840"/>
			<point x="23" y="648"/>
		</contour>
		<contour>
			<point x="137" y="412" type="curve"/>
			<point x="137" y="412" type="line"/>
			<point x="137" y="585"/>
			<point x="278" y="726"/>
			<point x="450" y="726" type="curve"/>
			<point x="623" y="726"/>
			<point x="764" y="585"/>
			<point x="764" y="412" type="curve"/>
			<point x="764" y="240"/>
			<point x="623" y="99"/>
			<point x="450" y="99" type="curve"/>
			<point x="278" y="99"/>
			<point x="137" y="240"/>
		</contour>
		<contour>
			<point x="490" y="516" type="curve"/>
			<point x="490" y="516" type="line"/>
			<point x="436" y="516"/>
			<point x="392" y="471"/>
			<point x="392" y="415" type="curve"/>
			<point x="392" y="357"/>
			<point x="436" y="313"/>
			<point x="490" y="313" type="curve"/>
			<point x="528" y="313"/>
			<point x="551" y="326"/>
			<point x="556" y="329" type="curve"/>
			<point x="571" y="297"/>
			<point x="585" y="271"/>
			<point x="600" y="239" type="curve"/>
			<point x="600" y="239"/>
			<point x="546" y="206"/>
			<point x="469" y="206" type="curve"/>
			<point x="356" y="206"/>
			<point x="251" y="298"/>
			<point x="251" y="413" type="curve"/>
			<point x="251" y="530"/>
			<point x="356" y="624"/>
			<point x="469" y="624" type="curve"/>
			<point x="554" y="624"/>
			<point x="597" y="592"/>
			<point x="600" y="589" type="curve"/>
			<point x="557" y="500" type="line"/>
			<point x="557" y="500"/>
			<point x="523" y="516"/>
		</contour>
	</outline>
</glyph>
<glyph name="ordfeminine" format="2">
	<advance width="512"/>
	<unicode hex="00AA"/>
	<outline>
		<contour>
			<point x="70" y="671" type="curve"/>
			<point x="70" y="671" type="line"/>
			<point x="70" y="579"/>
			<point x="135" y="504"/>
			<point x="228" y="504" type="curve"/>
			<point x="272" y="504"/>
			<point x="309" y="523"/>
			<point x="333" y="549" type="curve"/>
			<point x="334" y="549" type="line"/>
			<point x="334" y="513" type="line"/>
			<point x="442" y="513" type="line"/>
			<point x="442" y="830" type="line"/>
			<point x="333" y="830" type="line"/>
			<point x="333" y="800" type="line"/>
			<point x="306" y="825"/>
			<point x="271" y="840"/>
			<point x="228" y="840" type="curve"/>
			<point x="135" y="840"/>
			<point x="70" y="764"/>
		</contour>
		<contour>
			<point x="187" y="671" type="curve"/>
			<point x="187" y="671" type="line"/>
			<point x="187" y="715"/>
			<point x="220" y="746"/>
			<point x="261" y="746" type="curve"/>
			<point x="302" y="746"/>
			<point x="335" y="715"/>
			<point x="335" y="671" type="curve"/>
			<point x="335" y="628"/>
			<point x="304" y="597"/>
			<point x="261" y="597" type="curve"/>
			<point x="217" y="597"/>
			<point x="187" y="628"/>
		</contour>
	</outline>
</glyph>
<glyph name="macron" format="2">
	<advance width="548"/>
	<unicode hex="00AF"/>
	<outline>
		<contour>
			<point x="70" y="754" type="line"/>
			<point x="70" y="634" type="line"/>
			<point x="478" y="634" type="line"/>
			<point x="478" y="754" type="line"/>
		</contour>
	</outline>
</glyph>
<glyph name="plusminus" format="2">
	<advance width="633"/>
	<unicode hex="00B1"/>
	<outline>
		<contour>
			<point x="393" y="208" type="line"/>
			<point x="393" y="363" type="line"/>
			<point x="573" y="363" type="line"/>
			<point x="573" y="516" type="line"/>
			<point x="393" y="516" type="line"/>
			<point x="393" y="671" type="line"/>
			<point x="240" y="671" type="line"/>
			<point x="240" y="516" type="line"/>
			<point x="60" y="516" type="line"/>
			<point x="60" y="363" type="line"/>
			<point x="240" y="363" type="line"/>
			<point x="240" y="208" type="line"/>
		</contour>
		<contour>
			<point x="60" y="153" type="line"/>
			<point x="60" y="0" type="line"/>
			<point x="573" y="0" type="line"/>
			<point x="573" y="153" type="line"/>
		</contour>
	</outline>
</glyph>
<glyph name="uni00B3" format="2">
	<advance width="253"/>
	<unicode hex="00B3"/>
	<outline>
		<contour>
			<point x="25" y="771" type="curve"/>
			<point x="25" y="771" type="line"/>
			<point x="81" y="744" type="line"/>
			<point x="81" y="744"/>
			<point x="88" y="783"/>
			<point x="128" y="783" type="curve"/>
			<point x="148" y="783"/>
			<point x="167" y="768"/>
			<point x="167" y="748" type="curve"/>
			<point x="167" y="725"/>
			<point x="148" y="708"/>
			<point x="129" y="708" type="curve"/>
			<point x="114" y="708" type="line"/>
			<point x="114" y="661" type="line"/>
			<point x="114" y="661"/>
			<point x="120" y="663"/>
			<point x="127" y="663" type="curve"/>
			<point x="153" y="663"/>
			<point x="173" y="644"/>
			<point x="173" y="617" type="curve"/>
			<point x="173" y="590"/>
			<point x="154" y="575"/>
			<point x="127" y="575" type="curve"/>
			<point x="80" y="575"/>
			<point x="76" y="623"/>
			<point x="76" y="623" type="curve"/>
			<point x="9" y="591" type="line"/>
			<point x="9" y="591"/>
			<point x="31" y="513"/>
			<point x="128" y="513" type="curve"/>
			<point x="195" y="513"/>
			<point x="244" y="556"/>
			<point x="244" y="617" type="curve"/>
			<point x="244" y="650"/>
			<point x="229" y="674"/>
			<point x="204" y="689" type="curve"/>
			<point x="222" y="703"/>
			<point x="232" y="722"/>
			<point x="232" y="748" type="curve"/>
			<point x="232" y="802"/>
			<point x="189" y="840"/>
			<point x="129" y="840" type="curve"/>
			<point x="41" y="840"/>
			<point x="25" y="771"/>
		</contour>
	</outline>
</glyph>
<glyph name="acute" format="2">
	<advance width="566"/>
	<unicode hex="00B4"/>
	<outline>
		<contour>
			<point x="136" y="664" type="line"/>
			<point x="192" y="587" type="line"/>
			<point x="430" y="725" type="line"/>
			<point x="339" y="840" type="line"/>
		</contour>
	</outline>
</glyph>
<glyph name="periodcentered" format="2">
	<advance width="349"/>
	<unicode hex="00B7"/>
	<outline>
		<contour>
			<point x="174" y="384" type="curve"/>
			<point x="174" y="384" type="line"/>
			<point x="111" y="384"/>
			<point x="60" y="333"/>
			<point x="60" y="269" type="curve"/>
			<point x="60" y="206"/>
			<point x="111" y="155"/>
			<point x="174" y="155" type="curve"/>
			<point x="238" y="155"/>
			<point x="289" y="206"/>
			<point x="289" y="269" type="curve"/>
			<point x="289" y="333"/>
			<point x="238" y="384"/>
		</contour>
	</outline>
</glyph>
<glyph name="cedilla" format="2">
	<advance width="446"/>
	<unicode hex="00B8"/>
	<outline>
		<contour>
			<point x="269" y="4" type="line"/>
			<point x="199" y="26" type="line"/>
			<point x="151" y="-121" type="line"/>
			<point x="161" y="-129" type="line"/>
			<point x="161" y="-129"/>
			<point x="176" y="-120"/>
			<point x="212" y="-120" type="curve"/>
			<point x="240" y="-120"/>
			<point x="274" y="-134"/>
			<point x="274" y="-165" type="curve"/>
			<point x="274" y="-184"/>
			<point x="261" y="-204"/>
			<point x="224" y="-204" type="curve"/>
			<point x="178" y="-204"/>
			<point x="142" y="-157"/>
			<point x="142" y="-157" type="curve"/>
			<point x="70" y="-211" type="line"/>
			<point x="70" y="-211"/>
			<point x="134" y="-294"/>
			<point x="224" y="-294" type="curve"/>
			<point x="335" y="-294"/>
			<point x="376" y="-228"/>
			<point x="376" y="-165" type="curve"/>
			<point x="376" y="-96"/>
			<point x="302" y="-63"/>
			<point x="247" y="-63" type="curve"/>
		</contour>
	</outline>
</glyph>
<glyph name="uni00B9" format="2">
	<advance width="140"/>
	<unicode hex="00B9"/>
	<outline>
		<contour>
			<point x="9" y="697" type="line"/>
			<point x="60" y="730" type="line"/>
			<point x="60" y="513" type="line"/>
			<point x="131" y="513" type="line"/>
			<point x="131" y="825" type="line"/>
			<point x="97" y="825" type="line"/>
			<point x="9" y="768" type="line"/>
		</contour>
	</outline>
</glyph>
<glyph name="ordmasculine" format="2">
	<advance width="521"/>
	<unicode hex="00BA"/>
	<outline>
		<contour>
			<point x="70" y="671" type="curve"/>
			<point x="70" y="671" type="line"/>
			<point x="70" y="574"/>
			<point x="147" y="504"/>
			<point x="262" y="504" type="curve"/>
			<point x="371" y="504"/>
			<point x="451" y="574"/>
			<point x="451" y="671" type="curve"/>
			<point x="451" y="770"/>
			<point x="367" y="840"/>
			<point x="262" y="840" type="curve"/>
			<point x="155" y="840"/>
			<point x="70" y="770"/>
		</contour>
		<contour>
			<point x="187" y="671" type="curve"/>
			<point x="187" y="671" type="line"/>
			<point x="187" y="715"/>
			<point x="220" y="746"/>
			<point x="261" y="746" type="curve"/>
			<point x="302" y="746"/>
			<point x="335" y="715"/>
			<point x="335" y="671" type="curve"/>
			<point x="335" y="628"/>
			<point x="304" y="597"/>
			<point x="261" y="597" type="curve"/>
			<point x="216" y="597"/>
			<point x="187" y="628"/>
		</contour>
	</outline>
</glyph>
<glyph name="guillemotright" format="2">
	<advance width="625"/>
	<unicode hex="00BB"/>
	<outline>
		<contour>
			<point x="304" y="101" type="line"/>
			<point x="397" y="28" type="line"/>
			<point x="592" y="278" type="line"/>
			<point x="397" y="528" type="line"/>
			<point x="304" y="455" type="line"/>
			<point x="442" y="278" type="line"/>
		</contour>
		<contour>
			<point x="147" y="528" type="line"/>
			<point x="54" y="455" type="line"/>
			<point x="192" y="278" type="line"/>
			<point x="54" y="101" type="line"/>
			<point x="147" y="28" type="line"/>
			<point x="342" y="278" type="line"/>
		</contour>
	</outline>
</glyph>
<glyph name="onequarter" format="2">
	<advance width="876"/>
	<unicode hex="00BC"/>
	<outline>
		<contour>
			<point x="699" y="825" type="line"/>
			<point x="581" y="825" type="line"/>
			<point x="101" y="0" type="line"/>
			<point x="219" y="0" type="line"/>
		</contour>
		<contour>
			<point x="787" y="197" type="line"/>
			<point x="787" y="480" type="line"/>
			<point x="679" y="480" type="line"/>
			<point x="448" y="134" type="line"/>
			<point x="448" y="101" type="line"/>
			<point x="684" y="101" type="line"/>
			<point x="684" y="0" type="line"/>
			<point x="787" y="0" type="line"/>
			<point x="787" y="101" type="line"/>
			<point x="842" y="101" type="line"/>
			<point x="842" y="197" type="line"/>
		</contour>
		<contour>
			<point x="684" y="334" type="line"/>
			<point x="684" y="197" type="line"/>
			<point x="598" y="197" type="line"/>
			<point x="683" y="334" type="line"/>
		</contour>
		<contour>
			<point x="60" y="628" type="line"/>
			<point x="139" y="680" type="line"/>
			<point x="139" y="345" type="line"/>
			<point x="248" y="345" type="line"/>
			<point x="248" y="825" type="line"/>
			<point x="196" y="825" type="line"/>
			<point x="60" y="737" type="line"/>
		</contour>
	</outline>
</glyph>
<glyph name="onehalf" format="2">
	<advance width="945"/>
	<unicode hex="00BD"/>
	<outline>
		<contour>
			<point x="699" y="825" type="line"/>
			<point x="581" y="825" type="line"/>
			<point x="101" y="0" type="line"/>
			<point x="219" y="0" type="line"/>
		</contour>
		<contour>
			<point x="60" y="628" type="line"/>
			<point x="139" y="680" type="line"/>
			<point x="139" y="345" type="line"/>
			<point x="248" y="345" type="line"/>
			<point x="248" y="825" type="line"/>
			<point x="196" y="825" type="line"/>
			<point x="60" y="737" type="line"/>
		</contour>
		<contour>
			<point x="710" y="391" type="curve"/>
			<point x="710" y="391" type="line"/>
			<point x="774" y="391"/>
			<point x="778" y="333"/>
			<point x="778" y="316" type="curve"/>
			<point x="778" y="228"/>
			<point x="534" y="27"/>
			<point x="534" y="27" type="curve"/>
			<point x="534" y="0" type="line"/>
			<point x="903" y="0" type="line"/>
			<point x="903" y="95" type="line"/>
			<point x="727" y="95" type="line" smooth="yes"/>
			<point x="727" y="95"/>
			<point x="894" y="205"/>
			<point x="894" y="316" type="curve"/>
			<point x="894" y="375"/>
			<point x="873" y="482"/>
			<point x="710" y="482" type="curve"/>
			<point x="582" y="482"/>
			<point x="536" y="344"/>
			<point x="536" y="344" type="curve"/>
			<point x="626" y="301" type="line"/>
			<point x="626" y="301"/>
			<point x="659" y="391"/>
		</contour>
	</outline>
</glyph>
<glyph name="Acircumflex" format="2">
	<advance width="784"/>
	<unicode hex="00C2"/>
	<outline>
		<contour>
			<point x="479" y="825" type="line"/>
			<point x="305" y="825" type="line"/>
			<point x="-28" y="0" type="line"/>
			<point x="174" y="0" type="line"/>
			<point x="235" y="165" type="line"/>
			<point x="549" y="165" type="line"/>
			<point x="610" y="0" type="line"/>
			<point x="812" y="0" type="line"/>
		</contour>
		<contour>
			<point x="485" y="330" type="line"/>
			<point x="299" y="330" type="line"/>
			<point x="391" y="570" type="line"/>
			<point x="393" y="570" type="line"/>
		</contour>
		<contour>
			<point x="171" y="990" type="line"/>
			<point x="239" y="899" type="line"/>
			<point x="392" y="1011" type="line"/>
			<point x="545" y="899" type="line"/>
			<point x="613" y="990" type="line"/>
			<point x="392" y="1152" type="line"/>
		</contour>
	</outline>
</glyph>
<glyph name="Atilde" format="2">
	<advance width="784"/>
	<unicode hex="00C3"/>
	<outline>
		<contour>
			<point x="479" y="825" type="line"/>
			<point x="305" y="825" type="line"/>
			<point x="-28" y="0" type="line"/>
			<point x="174" y="0" type="line"/>
			<point x="235" y="165" type="line"/>
			<point x="549" y="165" type="line"/>
			<point x="610" y="0" type="line"/>
			<point x="812" y="0" type="line"/>
		</contour>
		<contour>
			<point x="485" y="330" type="line"/>
			<point x="299" y="330" type="line"/>
			<point x="391" y="570" type="line"/>
			<point x="393" y="570" type="line"/>
		</contour>
		<contour>
			<point x="383" y="954" type="curve"/>
			<point x="383" y="954" type="line"/>
			<point x="383" y="954"/>
			<point x="448" y="927"/>
			<point x="487" y="927" type="curve"/>
			<point x="597" y="927"/>
			<point x="623" y="1099"/>
			<point x="623" y="1099" type="curve"/>
			<point x="522" y="1099" type="line" smooth="yes"/>
			<point x="522" y="1099"/>
			<point x="509" y="1053"/>
			<point x="477" y="1053" type="curve"/>
			<point x="441" y="1053"/>
			<point x="401" y="1072"/>
			<point x="401" y="1072" type="curve"/>
			<point x="401" y="1072"/>
			<point x="336" y="1099"/>
			<point x="297" y="1099" type="curve"/>
			<point x="187" y="1099"/>
			<point x="161" y="927"/>
			<point x="161" y="927" type="curve"/>
			<point x="262" y="927" type="line"/>
			<point x="262" y="927"/>
			<point x="275" y="973"/>
			<point x="307" y="973" type="curve"/>
			<point x="343" y="973"/>
			<point x="383" y="954"/>
		</contour>
	</outline>
</glyph>
<glyph name="Ccedilla" format="2">
	<advance width="753"/>
	<unicode hex="00C7"/>
	<outline>
		<contour>
			<point x="499" y="170" type="curve"/>
			<point x="499" y="170" type="line"/>
			<point x="310" y="170"/>
			<point x="227" y="302"/>
			<point x="227" y="413" type="curve"/>
			<point x="227" y="523"/>
			<point x="310" y="655"/>
			<point x="499" y="655" type="curve"/>
			<point x="595" y="655"/>
			<point x="661" y="604"/>
			<point x="661" y="604" type="curve"/>
			<point x="741" y="764" type="line"/>
			<point x="741" y="764"/>
			<point x="649" y="840"/>
			<point x="470" y="840" type="curve"/>
			<point x="236" y="840"/>
			<point x="23" y="648"/>
			<point x="23" y="411" type="curve"/>
			<point x="23" y="220"/>
			<point x="162" y="60"/>
			<point x="338" y="5" type="curve"/>
			<point x="297" y="-121" type="line"/>
			<point x="307" y="-129" type="line"/>
			<point x="307" y="-129"/>
			<point x="322" y="-120"/>
			<point x="358" y="-120" type="curve"/>
			<point x="386" y="-120"/>
			<point x="420" y="-134"/>
			<point x="420" y="-165" type="curve"/>
			<point x="420" y="-184"/>
			<point x="407" y="-204"/>
			<point x="370" y="-204" type="curve"/>
			<point x="324" y="-204"/>
			<point x="288" y="-157"/>
			<point x="288" y="-157" type="curve"/>
			<point x="216" y="-211" type="line"/>
			<point x="216" y="-211"/>
			<point x="280" y="-294"/>
			<point x="370" y="-294" type="curve"/>
			<point x="481" y="-294"/>
			<point x="522" y="-228"/>
			<point x="522" y="-165" type="curve"/>
			<point x="522" y="-96"/>
			<point x="448" y="-63"/>
			<point x="393" y="-63" type="curve"/>
			<point x="410" y="-11" type="line"/>
			<point x="430" y="-14"/>
			<point x="450" y="-15"/>
			<point x="470" y="-15" type="curve"/>
			<point x="649" y="-15"/>
			<point x="741" y="61"/>
			<point x="741" y="61" type="curve"/>
			<point x="661" y="221" type="line"/>
			<point x="661" y="221"/>
			<point x="595" y="170"/>
		</contour>
	</outline>
</glyph>
<glyph name="Edieresis" format="2">
	<advance width="580"/>
	<unicode hex="00CB"/>
	<outline>
		<contour>
			<point x="532" y="825" type="line"/>
			<point x="60" y="825" type="line"/>
			<point x="60" y="0" type="line"/>
			<point x="532" y="0" type="line"/>
			<point x="532" y="165" type="line"/>
			<point x="248" y="165" type="line"/>
			<point x="248" y="331" type="line"/>
			<point x="520" y="331" type="line"/>
			<point x="520" y="496" type="line"/>
			<point x="248" y="496" type="line"/>
			<point x="248" y="660" type="line"/>
			<point x="532" y="660" type="line"/>
		</contour>
		<contour>
			<point x="171" y="1103" type="curve"/>
			<point x="171" y="1103" type="line"/>
			<point x="120" y="1103"/>
			<point x="79" y="1062"/>
			<point x="79" y="1011" type="curve"/>
			<point x="79" y="960"/>
			<point x="120" y="919"/>
			<point x="171" y="919" type="curve"/>
			<point x="222" y="919"/>
			<point x="263" y="960"/>
			<point x="263" y="1011" type="curve"/>
			<point x="263" y="1062"/>
			<point x="222" y="1103"/>
		</contour>
		<contour>
			<point x="408" y="1103" type="curve"/>
			<point x="408" y="1103" type="line"/>
			<point x="357" y="1103"/>
			<point x="316" y="1062"/>
			<point x="316" y="1011" type="curve"/>
			<point x="316" y="960"/>
			<point x="357" y="919"/>
			<point x="408" y="919" type="curve"/>
			<point x="459" y="919"/>
			<point x="500" y="960"/>
			<point x="500" y="1011" type="curve"/>
			<point x="500" y="1062"/>
			<point x="459" y="1103"/>
		</contour>
	</outline>
</glyph>
<glyph name="Igrave" format="2">
	<advance width="308"/>
	<unicode hex="00CC"/>
	<outline>
		<contour>
			<point x="248" y="825" type="line"/>
			<point x="60" y="825" type="line"/>
			<point x="60" y="0" type="line"/>
			<point x="248" y="0" type="line"/>
		</contour>
		<contour>
			<point x="9" y="1152" type="line"/>
			<point x="-82" y="1037" type="line"/>
			<point x="156" y="899" type="line"/>
			<point x="212" y="976" type="line"/>
		</contour>
	</outline>
</glyph>
<glyph name="Iacute" format="2">
	<advance width="308"/>
	<unicode hex="00CD"/>
	<outline>
		<contour>
			<point x="248" y="825" type="line"/>
			<point x="60" y="825" type="line"/>
			<point x="60" y="0" type="line"/>
			<point x="248" y="0" type="line"/>
		</contour>
		<contour>
			<point x="56" y="976" type="line"/>
			<point x="112" y="899" type="line"/>
			<point x="350" y="1037" type="line"/>
			<point x="259" y="1152" type="line"/>
		</contour>
	</outline>
</glyph>
<glyph name="Idieresis" format="2">
	<advance width="308"/>
	<unicode hex="00CF"/>
	<outline>
		<contour>
			<point x="248" y="825" type="line"/>
			<point x="60" y="825" type="line"/>
			<point x="60" y="0" type="line"/>
			<point x="248" y="0" type="line"/>
		</contour>
		<contour>
			<point x="36" y="1103" type="curve"/>
			<point x="36" y="1103" type="line"/>
			<point x="-15" y="1103"/>
			<point x="-56" y="1062"/>
			<point x="-56" y="1011" type="curve"/>
			<point x="-56" y="960"/>
			<point x="-15" y="919"/>
			<point x="36" y="919" type="curve"/>
			<point x="87" y="919"/>
			<point x="128" y="960"/>
			<point x="128" y="1011" type="curve"/>
			<point x="128" y="1062"/>
			<point x="87" y="1103"/>
		</contour>
		<contour>
			<point x="273" y="1103" type="curve"/>
			<point x="273" y="1103" type="line"/>
			<point x="222" y="1103"/>
			<point x="181" y="1062"/>
			<point x="181" y="1011" type="curve"/>
			<point x="181" y="960"/>
			<point x="222" y="919"/>
			<point x="273" y="919" type="curve"/>
			<point x="324" y="919"/>
			<point x="365" y="960"/>
			<point x="365" y="1011" type="curve"/>
			<point x="365" y="1062"/>
			<point x="324" y="1103"/>
		</contour>
	</outline>
</glyph>
<glyph name="Eth" format="2">
	<advance width="776"/>
	<unicode hex="00D0"/>
	<outline>
		<contour>
			<point x="16" y="336" type="line"/>
			<point x="98" y="336" type="line"/>
			<point x="98" y="0" type="line"/>
			<point x="337" y="0" type="line" smooth="yes"/>
			<point x="563" y="0"/>
			<point x="752" y="171"/>
			<point x="753" y="412" type="curve"/>
			<point x="753" y="653"/>
			<point x="564" y="825"/>
			<point x="337" y="825" type="curve"/>
			<point x="98" y="825" type="line"/>
			<point x="98" y="489" type="line"/>
			<point x="16" y="489" type="line"/>
		</contour>
		<contour>
			<point x="550" y="413" type="curve"/>
			<point x="550" y="413" type="line"/>
			<point x="550" y="275"/>
			<point x="455" y="168"/>
			<point x="315" y="168" type="curve"/>
			<point x="286" y="168" type="line"/>
			<point x="286" y="336" type="line"/>
			<point x="395" y="336" type="line"/>
			<point x="395" y="489" type="line"/>
			<point x="286" y="489" type="line"/>
			<point x="286" y="657" type="line"/>
			<point x="315" y="657" type="line" smooth="yes"/>
			<point x="454" y="657"/>
			<point x="549" y="550"/>
		</contour>
	</outline>
</glyph>
<glyph name="Ntilde" format="2">
	<advance width="826"/>
	<unicode hex="00D1"/>
	<outline>
		<contour>
			<point x="248" y="512" type="line"/>
			<point x="250" y="512" type="line"/>
			<point x="578" y="0" type="line"/>
			<point x="766" y="0" type="line"/>
			<point x="766" y="825" type="line"/>
			<point x="578" y="825" type="line"/>
			<point x="578" y="313" type="line"/>
			<point x="576" y="313" type="line"/>
			<point x="248" y="825" type="line"/>
			<point x="60" y="825" type="line"/>
			<point x="60" y="0" type="line"/>
			<point x="248" y="0" type="line"/>
		</contour>
		<contour>
			<point x="404" y="954" type="curve"/>
			<point x="404" y="954" type="line"/>
			<point x="404" y="954"/>
			<point x="469" y="927"/>
			<point x="508" y="927" type="curve"/>
			<point x="618" y="927"/>
			<point x="644" y="1099"/>
			<point x="644" y="1099" type="curve"/>
			<point x="543" y="1099" type="line" smooth="yes"/>
			<point x="543" y="1099"/>
			<point x="530" y="1053"/>
			<point x="498" y="1053" type="curve"/>
			<point x="462" y="1053"/>
			<point x="422" y="1072"/>
			<point x="422" y="1072" type="curve"/>
			<point x="422" y="1072"/>
			<point x="357" y="1099"/>
			<point x="318" y="1099" type="curve"/>
			<point x="208" y="1099"/>
			<point x="182" y="927"/>
			<point x="182" y="927" type="curve"/>
			<point x="283" y="927" type="line"/>
			<point x="283" y="927"/>
			<point x="296" y="973"/>
			<point x="328" y="973" type="curve"/>
			<point x="364" y="973"/>
			<point x="404" y="954"/>
		</contour>
	</outline>
</glyph>
<glyph name="Ograve" format="2">
	<advance width="877"/>
	<unicode hex="00D2"/>
	<outline>
		<contour>
			<point x="226" y="413" type="curve"/>
			<point x="226" y="413" type="line"/>
			<point x="226" y="536"/>
			<point x="294" y="659"/>
			<point x="439" y="659" type="curve"/>
			<point x="585" y="659"/>
			<point x="651" y="536"/>
			<point x="651" y="413" type="curve"/>
			<point x="651" y="290"/>
			<point x="589" y="167"/>
			<point x="439" y="167" type="curve"/>
			<point x="285" y="167"/>
			<point x="226" y="290"/>
		</contour>
		<contour>
			<point x="23" y="413" type="curve"/>
			<point x="23" y="413" type="line"/>
			<point x="23" y="172"/>
			<point x="195" y="-15"/>
			<point x="439" y="-15" type="curve"/>
			<point x="676" y="-15"/>
			<point x="854" y="172"/>
			<point x="854" y="413" type="curve"/>
			<point x="854" y="654"/>
			<point x="668" y="840"/>
			<point x="439" y="840" type="curve"/>
			<point x="212" y="840"/>
			<point x="23" y="654"/>
		</contour>
		<contour>
			<point x="293" y="1152" type="line"/>
			<point x="202" y="1037" type="line"/>
			<point x="440" y="899" type="line"/>
			<point x="496" y="976" type="line"/>
		</contour>
	</outline>
</glyph>
<glyph name="Otilde" format="2">
	<advance width="877"/>
	<unicode hex="00D5"/>
	<outline>
		<contour>
			<point x="226" y="413" type="curve"/>
			<point x="226" y="413" type="line"/>
			<point x="226" y="536"/>
			<point x="294" y="659"/>
			<point x="439" y="659" type="curve"/>
			<point x="585" y="659"/>
			<point x="651" y="536"/>
			<point x="651" y="413" type="curve"/>
			<point x="651" y="290"/>
			<point x="589" y="167"/>
			<point x="439" y="167" type="curve"/>
			<point x="285" y="167"/>
			<point x="226" y="290"/>
		</contour>
		<contour>
			<point x="23" y="413" type="curve"/>
			<point x="23" y="413" type="line"/>
			<point x="23" y="172"/>
			<point x="195" y="-15"/>
			<point x="439" y="-15" type="curve"/>
			<point x="676" y="-15"/>
			<point x="854" y="172"/>
			<point x="854" y="413" type="curve"/>
			<point x="854" y="654"/>
			<point x="668" y="840"/>
			<point x="439" y="840" type="curve"/>
			<point x="212" y="840"/>
			<point x="23" y="654"/>
		</contour>
		<contour>
			<point x="429" y="954" type="curve"/>
			<point x="429" y="954" type="line"/>
			<point x="429" y="954"/>
			<point x="494" y="927"/>
			<point x="533" y="927" type="curve"/>
			<point x="643" y="927"/>
			<point x="669" y="1099"/>
			<point x="669" y="1099" type="curve"/>
			<point x="568" y="1099" type="line" smooth="yes"/>
			<point x="568" y="1099"/>
			<point x="555" y="1053"/>
			<point x="523" y="1053" type="curve"/>
			<point x="487" y="1053"/>
			<point x="447" y="1072"/>
			<point x="447" y="1072" type="curve"/>
			<point x="447" y="1072"/>
			<point x="382" y="1099"/>
			<point x="343" y="1099" type="curve"/>
			<point x="233" y="1099"/>
			<point x="207" y="927"/>
			<point x="207" y="927" type="curve"/>
			<point x="308" y="927" type="line"/>
			<point x="308" y="927"/>
			<point x="321" y="973"/>
			<point x="353" y="973" type="curve"/>
			<point x="389" y="973"/>
			<point x="429" y="954"/>
		</contour>
	</outline>
</glyph>
<glyph name="Oslash" format="2">
	<advance width="877"/>
	<unicode hex="00D8"/>
	<outline>
		<contour>
			<point x="122" y="128" type="curve"/>
			<point x="122" y="128" type="line"/>
			<point x="67" y="59" type="line"/>
			<point x="179" y="-27" type="line"/>
			<point x="230" y="38" type="line"/>
			<point x="290" y="4"/>
			<point x="361" y="-15"/>
			<point x="439" y="-15" type="curve"/>
			<point x="676" y="-15"/>
			<point x="854" y="172"/>
			<point x="854" y="413" type="curve"/>
			<point x="854" y="522"/>
			<point x="815" y="620"/>
			<point x="752" y="694" type="curve"/>
			<point x="810" y="767" type="line"/>
			<point x="698" y="853" type="line"/>
			<point x="644" y="785" type="line"/>
			<point x="583" y="820"/>
			<point x="513" y="840"/>
			<point x="439" y="840" type="curve"/>
			<point x="212" y="840"/>
			<point x="23" y="654"/>
			<point x="23" y="413" type="curve"/>
			<point x="23" y="302"/>
			<point x="59" y="203"/>
		</contour>
		<contour>
			<point x="651" y="413" type="curve"/>
			<point x="651" y="413" type="line"/>
			<point x="651" y="290"/>
			<point x="589" y="167"/>
			<point x="439" y="167" type="curve"/>
			<point x="403" y="167"/>
			<point x="373" y="173"/>
			<point x="347" y="185" type="curve"/>
			<point x="626" y="536" type="line"/>
			<point x="643" y="498"/>
			<point x="651" y="455"/>
		</contour>
		<contour>
			<point x="226" y="413" type="curve"/>
			<point x="226" y="413" type="line"/>
			<point x="226" y="536"/>
			<point x="294" y="659"/>
			<point x="439" y="659" type="curve"/>
			<point x="473" y="659"/>
			<point x="503" y="652"/>
			<point x="528" y="640" type="curve"/>
			<point x="249" y="288" type="line"/>
			<point x="233" y="326"/>
			<point x="226" y="370"/>
		</contour>
	</outline>
</glyph>
<glyph name="Ucircumflex" format="2">
	<advance width="744"/>
	<unicode hex="00DB"/>
	<outline>
		<contour>
			<point x="506" y="348" type="curve"/>
			<point x="506" y="348" type="line"/>
			<point x="506" y="825" type="line"/>
			<point x="694" y="825" type="line"/>
			<point x="694" y="293" type="line" smooth="yes"/>
			<point x="694" y="89"/>
			<point x="582" y="-15"/>
			<point x="372" y="-15" type="curve"/>
			<point x="162" y="-15"/>
			<point x="50" y="89"/>
			<point x="50" y="293" type="curve"/>
			<point x="50" y="825" type="line"/>
			<point x="238" y="825" type="line"/>
			<point x="238" y="348" type="line" smooth="yes"/>
			<point x="238" y="210"/>
			<point x="280" y="170"/>
			<point x="372" y="170" type="curve"/>
			<point x="464" y="170"/>
			<point x="506" y="210"/>
		</contour>
		<contour>
			<point x="151" y="990" type="line"/>
			<point x="219" y="899" type="line"/>
			<point x="372" y="1011" type="line"/>
			<point x="525" y="899" type="line"/>
			<point x="593" y="990" type="line"/>
			<point x="372" y="1152" type="line"/>
		</contour>
	</outline>
</glyph>
<glyph name="Thorn" format="2">
	<advance width="666"/>
	<unicode hex="00DE"/>
	<outline>
		<contour>
			<point x="248" y="825" type="line"/>
			<point x="60" y="825" type="line"/>
			<point x="60" y="0" type="line"/>
			<point x="248" y="0" type="line"/>
			<point x="248" y="153" type="line"/>
			<point x="361" y="153" type="line" smooth="yes"/>
			<point x="522" y="153"/>
			<point x="643" y="248"/>
			<point x="643" y="418" type="curve"/>
			<point x="643" y="589"/>
			<point x="522" y="672"/>
			<point x="361" y="672" type="curve"/>
			<point x="248" y="672" type="line"/>
		</contour>
		<contour>
			<point x="301" y="303" type="curve"/>
			<point x="248" y="303" type="line"/>
			<point x="248" y="522" type="line"/>
			<point x="301" y="522" type="line" smooth="yes"/>
			<point x="375" y="522"/>
			<point x="440" y="496"/>
			<point x="440" y="412" type="curve"/>
			<point x="440" y="329"/>
			<point x="375" y="303"/>
		</contour>
	</outline>
</glyph>
<glyph name="germandbls" format="2">
	<advance width="656"/>
	<unicode hex="00DF"/>
	<outline>
		<contour>
			<point x="326" y="147" type="curve"/>
			<point x="326" y="147" type="line"/>
			<point x="326" y="-15" type="line"/>
			<point x="504" y="-15"/>
			<point x="633" y="97"/>
			<point x="633" y="255" type="curve"/>
			<point x="633" y="356"/>
			<point x="581" y="423"/>
			<point x="501" y="460" type="curve"/>
			<point x="562" y="494"/>
			<point x="601" y="551"/>
			<point x="601" y="630" type="curve"/>
			<point x="601" y="768"/>
			<point x="497" y="872"/>
			<point x="343" y="875" type="curve"/>
			<point x="209" y="875"/>
			<point x="90" y="772"/>
			<point x="90" y="622" type="curve"/>
			<point x="90" y="460" type="line"/>
			<point x="24" y="460" type="line"/>
			<point x="24" y="325" type="line"/>
			<point x="90" y="325" type="line"/>
			<point x="90" y="0" type="line"/>
			<point x="267" y="0" type="line"/>
			<point x="267" y="636" type="line" smooth="yes"/>
			<point x="267" y="695"/>
			<point x="309" y="726"/>
			<point x="343" y="726" type="curve"/>
			<point x="401" y="726"/>
			<point x="434" y="690"/>
			<point x="434" y="630" type="curve"/>
			<point x="434" y="567"/>
			<point x="384" y="524"/>
			<point x="326" y="524" type="curve"/>
			<point x="326" y="389" type="line"/>
			<point x="402" y="389"/>
			<point x="445" y="338"/>
			<point x="445" y="264" type="curve"/>
			<point x="445" y="194"/>
			<point x="395" y="147"/>
		</contour>
	</outline>
</glyph>
<glyph name="acircumflex" format="2">
	<advance width="683"/>
	<unicode hex="00E2"/>
	<outline>
		<contour>
			<point x="23" y="256" type="curve"/>
			<point x="23" y="256" type="line"/>
			<point x="23" y="406"/>
			<point x="128" y="528"/>
			<point x="278" y="528" type="curve"/>
			<point x="347" y="528"/>
			<point x="404" y="505"/>
			<point x="446" y="464" type="curve"/>
			<point x="446" y="513" type="line"/>
			<point x="623" y="513" type="line"/>
			<point x="623" y="0" type="line"/>
			<point x="448" y="0" type="line"/>
			<point x="448" y="58" type="line"/>
			<point x="446" y="58" type="line"/>
			<point x="408" y="16"/>
			<point x="348" y="-15"/>
			<point x="278" y="-15" type="curve"/>
			<point x="128" y="-15"/>
			<point x="23" y="106"/>
		</contour>
		<contour>
			<point x="211" y="256" type="curve"/>
			<point x="211" y="256" type="line"/>
			<point x="211" y="186"/>
			<point x="259" y="136"/>
			<point x="331" y="136" type="curve"/>
			<point x="400" y="136"/>
			<point x="450" y="186"/>
			<point x="450" y="256" type="curve"/>
			<point x="450" y="327"/>
			<point x="397" y="377"/>
			<point x="331" y="377" type="curve"/>
			<point x="264" y="377"/>
			<point x="211" y="327"/>
		</contour>
		<contour>
			<point x="120" y="678" type="line"/>
			<point x="188" y="587" type="line"/>
			<point x="341" y="699" type="line"/>
			<point x="494" y="587" type="line"/>
			<point x="562" y="678" type="line"/>
			<point x="341" y="840" type="line"/>
		</contour>
	</outline>
</glyph>
<glyph name="ae" format="2">
	<advance width="943"/>
	<unicode hex="00E6"/>
	<outline>
		<contour>
			<point x="56" y="478" type="curve"/>
			<point x="56" y="478" type="line"/>
			<point x="112" y="357" type="line"/>
			<point x="112" y="357"/>
			<point x="159" y="387"/>
			<point x="251" y="387" type="curve"/>
			<point x="302" y="387"/>
			<point x="363" y="355"/>
			<point x="363" y="299" type="curve"/>
			<point x="363" y="262" type="line"/>
			<point x="340" y="278"/>
			<point x="291" y="301"/>
			<point x="206" y="301" type="curve"/>
			<point x="90" y="301"/>
			<point x="23" y="228"/>
			<point x="23" y="136" type="curve"/>
			<point x="23" y="43"/>
			<point x="106" y="-15"/>
			<point x="213" y="-15" type="curve"/>
			<point x="370" y="-15"/>
			<point x="432" y="79"/>
			<point x="432" y="79" type="curve"/>
			<point x="484" y="21"/>
			<point x="560" y="-15"/>
			<point x="645" y="-15" type="curve"/>
			<point x="759" y="-15"/>
			<point x="853" y="22"/>
			<point x="911" y="119" type="curve"/>
			<point x="783" y="183" type="line"/>
			<point x="740" y="137"/>
			<point x="715" y="126"/>
			<point x="658" y="126" type="curve"/>
			<point x="613" y="126"/>
			<point x="547" y="153"/>
			<point x="547" y="232" type="curve"/>
			<point x="919" y="232" type="line"/>
			<point x="920" y="238"/>
			<point x="920" y="249"/>
			<point x="920" y="256" type="curve"/>
			<point x="920" y="436"/>
			<point x="801" y="528"/>
			<point x="645" y="528" type="curve"/>
			<point x="576" y="528"/>
			<point x="512" y="504"/>
			<point x="463" y="464" type="curve"/>
			<point x="401" y="513"/>
			<point x="313" y="528"/>
			<point x="251" y="528" type="curve"/>
			<point x="120" y="528"/>
			<point x="56" y="478"/>
		</contour>
		<contour>
			<point x="199" y="151" type="curve"/>
			<point x="199" y="151" type="line"/>
			<point x="199" y="187"/>
			<point x="231" y="207"/>
			<point x="278" y="207" type="curve"/>
			<point x="325" y="207"/>
			<point x="363" y="181"/>
			<point x="363" y="151" type="curve"/>
			<point x="363" y="121"/>
			<point x="325" y="91"/>
			<point x="278" y="91" type="curve"/>
			<point x="231" y="91"/>
			<point x="199" y="115"/>
		</contour>
		<contour>
			<point x="747" y="330" type="curve"/>
			<point x="747" y="330" type="line"/>
			<point x="552" y="330" type="line"/>
			<point x="555" y="377"/>
			<point x="589" y="413"/>
			<point x="650" y="413" type="curve"/>
			<point x="702" y="413"/>
			<point x="739" y="384"/>
		</contour>
	</outline>
</glyph>
<glyph name="ecircumflex" format="2">
	<advance width="603"/>
	<unicode hex="00EA"/>
	<outline>
		<contour>
			<point x="207" y="232" type="curve"/>
			<point x="207" y="232" type="line"/>
			<point x="579" y="232" type="line"/>
			<point x="580" y="238"/>
			<point x="580" y="249"/>
			<point x="580" y="256" type="curve"/>
			<point x="580" y="436"/>
			<point x="461" y="528"/>
			<point x="305" y="528" type="curve"/>
			<point x="150" y="528"/>
			<point x="23" y="406"/>
			<point x="23" y="256" type="curve"/>
			<point x="23" y="107"/>
			<point x="150" y="-15"/>
			<point x="305" y="-15" type="curve"/>
			<point x="419" y="-15"/>
			<point x="513" y="22"/>
			<point x="571" y="119" type="curve"/>
			<point x="443" y="183" type="line"/>
			<point x="400" y="137"/>
			<point x="375" y="126"/>
			<point x="318" y="126" type="curve"/>
			<point x="273" y="126"/>
			<point x="207" y="153"/>
		</contour>
		<contour>
			<point x="407" y="330" type="curve"/>
			<point x="407" y="330" type="line"/>
			<point x="212" y="330" type="line"/>
			<point x="215" y="377"/>
			<point x="249" y="413"/>
			<point x="310" y="413" type="curve"/>
			<point x="362" y="413"/>
			<point x="399" y="384"/>
		</contour>
		<contour>
			<point x="80" y="678" type="line"/>
			<point x="148" y="587" type="line"/>
			<point x="301" y="699" type="line"/>
			<point x="454" y="587" type="line"/>
			<point x="522" y="678" type="line"/>
			<point x="301" y="840" type="line"/>
		</contour>
	</outline>
</glyph>
<glyph name="edieresis" format="2">
	<advance width="603"/>
	<unicode hex="00EB"/>
	<outline>
		<contour>
			<point x="207" y="232" type="curve"/>
			<point x="207" y="232" type="line"/>
			<point x="579" y="232" type="line"/>
			<point x="580" y="238"/>
			<point x="580" y="249"/>
			<point x="580" y="256" type="curve"/>
			<point x="580" y="436"/>
			<point x="461" y="528"/>
			<point x="305" y="528" type="curve"/>
			<point x="150" y="528"/>
			<point x="23" y="406"/>
			<point x="23" y="256" type="curve"/>
			<point x="23" y="107"/>
			<point x="150" y="-15"/>
			<point x="305" y="-15" type="curve"/>
			<point x="419" y="-15"/>
			<point x="513" y="22"/>
			<point x="571" y="119" type="curve"/>
			<point x="443" y="183" type="line"/>
			<point x="400" y="137"/>
			<point x="375" y="126"/>
			<point x="318" y="126" type="curve"/>
			<point x="273" y="126"/>
			<point x="207" y="153"/>
		</contour>
		<contour>
			<point x="407" y="330" type="curve"/>
			<point x="407" y="330" type="line"/>
			<point x="212" y="330" type="line"/>
			<point x="215" y="377"/>
			<point x="249" y="413"/>
			<point x="310" y="413" type="curve"/>
			<point x="362" y="413"/>
			<point x="399" y="384"/>
		</contour>
		<contour>
			<point x="183" y="791" type="curve"/>
			<point x="183" y="791" type="line"/>
			<point x="132" y="791"/>
			<point x="91" y="750"/>
			<point x="91" y="699" type="curve"/>
			<point x="91" y="648"/>
			<point x="132" y="607"/>
			<point x="183" y="607" type="curve"/>
			<point x="234" y="607"/>
			<point x="275" y="648"/>
			<point x="275" y="699" type="curve"/>
			<point x="275" y="750"/>
			<point x="234" y="791"/>
		</contour>
		<contour>
			<point x="420" y="791" type="curve"/>
			<point x="420" y="791" type="line"/>
			<point x="369" y="791"/>
			<point x="328" y="750"/>
			<point x="328" y="699" type="curve"/>
			<point x="328" y="648"/>
			<point x="369" y="607"/>
			<point x="420" y="607" type="curve"/>
			<point x="471" y="607"/>
			<point x="512" y="648"/>
			<point x="512" y="699" type="curve"/>
			<point x="512" y="750"/>
			<point x="471" y="791"/>
		</contour>
	</outline>
</glyph>
<glyph name="igrave" format="2">
	<advance width="297"/>
	<unicode hex="00EC"/>
	<outline>
		<contour>
			<point x="60" y="513" type="line"/>
			<point x="237" y="513" type="line"/>
			<point x="237" y="0" type="line"/>
			<point x="60" y="0" type="line"/>
		</contour>
		<contour>
			<point x="4" y="840" type="line"/>
			<point x="-87" y="725" type="line"/>
			<point x="151" y="587" type="line"/>
			<point x="207" y="664" type="line"/>
		</contour>
	</outline>
</glyph>
<glyph name="iacute" format="2">
	<advance width="297"/>
	<unicode hex="00ED"/>
	<outline>
		<contour>
			<point x="60" y="513" type="line"/>
			<point x="237" y="513" type="line"/>
			<point x="237" y="0" type="line"/>
			<point x="60" y="0" type="line"/>
		</contour>
		<contour>
			<point x="90" y="664" type="line"/>
			<point x="146" y="587" type="line"/>
			<point x="384" y="725" type="line"/>
			<point x="293" y="840" type="line"/>
		</contour>
	</outline>
</glyph>
<glyph name="icircumflex" format="2">
	<advance width="297"/>
	<unicode hex="00EE"/>
	<outline>
		<contour>
			<point x="60" y="513" type="line"/>
			<point x="237" y="513" type="line"/>
			<point x="237" y="0" type="line"/>
			<point x="60" y="0" type="line"/>
		</contour>
		<contour>
			<point x="-72" y="678" type="line"/>
			<point x="-4" y="587" type="line"/>
			<point x="149" y="699" type="line"/>
			<point x="302" y="587" type="line"/>
			<point x="370" y="678" type="line"/>
			<point x="149" y="840" type="line"/>
		</contour>
	</outline>
</glyph>
<glyph name="idieresis" format="2">
	<advance width="297"/>
	<unicode hex="00EF"/>
	<outline>
		<contour>
			<point x="60" y="513" type="line"/>
			<point x="237" y="513" type="line"/>
			<point x="237" y="0" type="line"/>
			<point x="60" y="0" type="line"/>
		</contour>
		<contour>
			<point x="30" y="791" type="curve"/>
			<point x="30" y="791" type="line"/>
			<point x="-21" y="791"/>
			<point x="-62" y="750"/>
			<point x="-62" y="699" type="curve"/>
			<point x="-62" y="648"/>
			<point x="-21" y="607"/>
			<point x="30" y="607" type="curve"/>
			<point x="81" y="607"/>
			<point x="122" y="648"/>
			<point x="122" y="699" type="curve"/>
			<point x="122" y="750"/>
			<point x="81" y="791"/>
		</contour>
		<contour>
			<point x="267" y="791" type="curve"/>
			<point x="267" y="791" type="line"/>
			<point x="216" y="791"/>
			<point x="175" y="750"/>
			<point x="175" y="699" type="curve"/>
			<point x="175" y="648"/>
			<point x="216" y="607"/>
			<point x="267" y="607" type="curve"/>
			<point x="318" y="607"/>
			<point x="359" y="648"/>
			<point x="359" y="699" type="curve"/>
			<point x="359" y="750"/>
			<point x="318" y="791"/>
		</contour>
	</outline>
</glyph>
<glyph name="ocircumflex" format="2">
	<advance width="661"/>
	<unicode hex="00F4"/>
	<outline>
		<contour>
			<point x="23" y="256" type="curve"/>
			<point x="23" y="256" type="line"/>
			<point x="23" y="416"/>
			<point x="159" y="528"/>
			<point x="332" y="528" type="curve"/>
			<point x="502" y="528"/>
			<point x="638" y="416"/>
			<point x="638" y="256" type="curve"/>
			<point x="638" y="98"/>
			<point x="509" y="-15"/>
			<point x="332" y="-15" type="curve"/>
			<point x="147" y="-15"/>
			<point x="23" y="98"/>
		</contour>
		<contour>
			<point x="211" y="256" type="curve"/>
			<point x="211" y="256" type="line"/>
			<point x="211" y="186"/>
			<point x="259" y="136"/>
			<point x="331" y="136" type="curve"/>
			<point x="400" y="136"/>
			<point x="450" y="186"/>
			<point x="450" y="256" type="curve"/>
			<point x="450" y="327"/>
			<point x="397" y="377"/>
			<point x="331" y="377" type="curve"/>
			<point x="264" y="377"/>
			<point x="211" y="327"/>
		</contour>
		<contour>
			<point x="109" y="678" type="line"/>
			<point x="177" y="587" type="line"/>
			<point x="330" y="699" type="line"/>
			<point x="483" y="587" type="line"/>
			<point x="551" y="678" type="line"/>
			<point x="330" y="840" type="line"/>
		</contour>
	</outline>
</glyph>
<glyph name="oslash" format="2">
	<advance width="661"/>
	<unicode hex="00F8"/>
	<outline>
		<contour>
			<point x="668" y="484" type="line"/>
			<point x="623" y="538" type="line"/>
			<point x="533" y="465" type="line"/>
			<point x="479" y="505"/>
			<point x="409" y="528"/>
			<point x="332" y="528" type="curve"/>
			<point x="159" y="528"/>
			<point x="23" y="416"/>
			<point x="23" y="256" type="curve"/>
			<point x="23" y="194"/>
			<point x="42" y="139"/>
			<point x="76" y="95" type="curve"/>
			<point x="-7" y="28" type="line"/>
			<point x="38" y="-26" type="line"/>
			<point x="127" y="46" type="line"/>
			<point x="179" y="7"/>
			<point x="250" y="-15"/>
			<point x="332" y="-15" type="curve"/>
			<point x="509" y="-15"/>
			<point x="638" y="98"/>
			<point x="638" y="256" type="curve"/>
			<point x="638" y="317"/>
			<point x="618" y="372"/>
			<point x="583" y="415" type="curve"/>
		</contour>
		<contour>
			<point x="211" y="256" type="curve"/>
			<point x="211" y="256" type="line"/>
			<point x="211" y="327"/>
			<point x="264" y="377"/>
			<point x="331" y="377" type="curve"/>
			<point x="356" y="377"/>
			<point x="380" y="369"/>
			<point x="399" y="356" type="curve"/>
			<point x="218" y="210" type="line"/>
			<point x="213" y="224"/>
			<point x="211" y="239"/>
		</contour>
		<contour>
			<point x="331" y="136" type="curve"/>
			<point x="331" y="136" type="line"/>
			<point x="304" y="136"/>
			<point x="281" y="143"/>
			<point x="262" y="155" type="curve"/>
			<point x="442" y="301" type="line"/>
			<point x="447" y="287"/>
			<point x="450" y="272"/>
			<point x="450" y="256" type="curve"/>
			<point x="450" y="186"/>
			<point x="400" y="136"/>
		</contour>
	</outline>
</glyph>
<glyph name="ugrave" format="2">
	<advance width="656"/>
	<unicode hex="00F9"/>
	<outline>
		<contour>
			<point x="50" y="513" type="line"/>
			<point x="227" y="513" type="line"/>
			<point x="227" y="269" type="line" smooth="yes"/>
			<point x="227" y="168"/>
			<point x="254" y="129"/>
			<point x="328" y="129" type="curve"/>
			<point x="402" y="129"/>
			<point x="429" y="168"/>
			<point x="429" y="269" type="curve"/>
			<point x="429" y="513" type="line"/>
			<point x="606" y="513" type="line"/>
			<point x="606" y="226" type="line" smooth="yes"/>
			<point x="606" y="54"/>
			<point x="520" y="-15"/>
			<point x="328" y="-15" type="curve"/>
			<point x="136" y="-15"/>
			<point x="50" y="54"/>
			<point x="50" y="226" type="curve"/>
		</contour>
		<contour>
			<point x="183" y="840" type="line"/>
			<point x="92" y="725" type="line"/>
			<point x="330" y="587" type="line"/>
			<point x="386" y="664" type="line"/>
		</contour>
	</outline>
</glyph>
<glyph name="uacute" format="2">
	<advance width="656"/>
	<unicode hex="00FA"/>
	<outline>
		<contour>
			<point x="50" y="513" type="line"/>
			<point x="227" y="513" type="line"/>
			<point x="227" y="269" type="line" smooth="yes"/>
			<point x="227" y="168"/>
			<point x="254" y="129"/>
			<point x="328" y="129" type="curve"/>
			<point x="402" y="129"/>
			<point x="429" y="168"/>
			<point x="429" y="269" type="curve"/>
			<point x="429" y="513" type="line"/>
			<point x="606" y="513" type="line"/>
			<point x="606" y="226" type="line" smooth="yes"/>
			<point x="606" y="54"/>
			<point x="520" y="-15"/>
			<point x="328" y="-15" type="curve"/>
			<point x="136" y="-15"/>
			<point x="50" y="54"/>
			<point x="50" y="226" type="curve"/>
		</contour>
		<contour>
			<point x="269" y="664" type="line"/>
			<point x="325" y="587" type="line"/>
			<point x="563" y="725" type="line"/>
			<point x="472" y="840" type="line"/>
		</contour>
	</outline>
</glyph>
<glyph name="udieresis" format="2">
	<advance width="656"/>
	<unicode hex="00FC"/>
	<outline>
		<contour>
			<point x="50" y="513" type="line"/>
			<point x="227" y="513" type="line"/>
			<point x="227" y="269" type="line" smooth="yes"/>
			<point x="227" y="168"/>
			<point x="254" y="129"/>
			<point x="328" y="129" type="curve"/>
			<point x="402" y="129"/>
			<point x="429" y="168"/>
			<point x="429" y="269" type="curve"/>
			<point x="429" y="513" type="line"/>
			<point x="606" y="513" type="line"/>
			<point x="606" y="226" type="line" smooth="yes"/>
			<point x="606" y="54"/>
			<point x="520" y="-15"/>
			<point x="328" y="-15" type="curve"/>
			<point x="136" y="-15"/>
			<point x="50" y="54"/>
			<point x="50" y="226" type="curve"/>
		</contour>
		<contour>
			<point x="209" y="791" type="curve"/>
			<point x="209" y="791" type="line"/>
			<point x="158" y="791"/>
			<point x="117" y="750"/>
			<point x="117" y="699" type="curve"/>
			<point x="117" y="648"/>
			<point x="158" y="607"/>
			<point x="209" y="607" type="curve"/>
			<point x="260" y="607"/>
			<point x="301" y="648"/>
			<point x="301" y="699" type="curve"/>
			<point x="301" y="750"/>
			<point x="260" y="791"/>
		</contour>
		<contour>
			<point x="446" y="791" type="curve"/>
			<point x="446" y="791" type="line"/>
			<point x="395" y="791"/>
			<point x="354" y="750"/>
			<point x="354" y="699" type="curve"/>
			<point x="354" y="648"/>
			<point x="395" y="607"/>
			<point x="446" y="607" type="curve"/>
			<point x="497" y="607"/>
			<point x="538" y="648"/>
			<point x="538" y="699" type="curve"/>
			<point x="538" y="750"/>
			<point x="497" y="791"/>
		</contour>
	</outline>
</glyph>
<glyph name="yacute" format="2">
	<advance width="633"/>
	<unicode hex="00FD"/>
	<outline>
		<contour>
			<point x="449" y="513" type="line"/>
			<point x="327" y="250" type="line"/>
			<point x="184" y="513" type="line"/>
			<point x="-20" y="513" type="line"/>
			<point x="223" y="80" type="line"/>
			<point x="46" y="-260" type="line"/>
			<point x="250" y="-260" type="line"/>
			<point x="653" y="513" type="line"/>
		</contour>
		<contour>
			<point x="219" y="664" type="line"/>
			<point x="275" y="587" type="line"/>
			<point x="513" y="725" type="line"/>
			<point x="422" y="840" type="line"/>
		</contour>
	</outline>
</glyph>
<glyph name="ydieresis" format="2">
	<advance width="633"/>
	<unicode hex="00FF"/>
	<outline>
		<contour>
			<point x="449" y="513" type="line"/>
			<point x="327" y="250" type="line"/>
			<point x="184" y="513" type="line"/>
			<point x="-20" y="513" type="line"/>
			<point x="223" y="80" type="line"/>
			<point x="46" y="-260" type="line"/>
			<point x="250" y="-260" type="line"/>
			<point x="653" y="513" type="line"/>
		</contour>
		<contour>
			<point x="198" y="791" type="curve"/>
			<point x="198" y="791" type="line"/>
			<point x="147" y="791"/>
			<point x="106" y="750"/>
			<point x="106" y="699" type="curve"/>
			<point x="106" y="648"/>
			<point x="147" y="607"/>
			<point x="198" y="607" type="curve"/>
			<point x="249" y="607"/>
			<point x="290" y="648"/>
			<point x="290" y="699" type="curve"/>
			<point x="290" y="750"/>
			<point x="249" y="791"/>
		</contour>
		<contour>
			<point x="435" y="791" type="curve"/>
			<point x="435" y="791" type="line"/>
			<point x="384" y="791"/>
			<point x="343" y="750"/>
			<point x="343" y="699" type="curve"/>
			<point x="343" y="648"/>
			<point x="384" y="607"/>
			<point x="435" y="607" type="curve"/>
			<point x="486" y="607"/>
			<point x="527" y="648"/>
			<point x="527" y="699" type="curve"/>
			<point x="527" y="750"/>
			<point x="486" y="791"/>
		</contour>
	</outline>
</glyph>
<glyph name="cacute" format="2">
	<advance width="491"/>
	<unicode hex="0107"/>
	<outline>
		<contour>
			<point x="333" y="383" type="curve"/>
			<point x="333" y="383" type="line"/>
			<point x="386" y="383"/>
			<point x="419" y="359"/>
			<point x="419" y="359" type="curve"/>
			<point x="479" y="480" type="line"/>
			<point x="479" y="480"/>
			<point x="421" y="528"/>
			<point x="307" y="528" type="curve"/>
			<point x="158" y="528"/>
			<point x="23" y="406"/>
			<point x="23" y="255" type="curve"/>
			<point x="23" y="105"/>
			<point x="159" y="-15"/>
			<point x="307" y="-15" type="curve"/>
			<point x="421" y="-15"/>
			<point x="479" y="31"/>
			<point x="479" y="31" type="curve"/>
			<point x="419" y="154" type="line"/>
			<point x="419" y="154"/>
			<point x="386" y="130"/>
			<point x="333" y="130" type="curve"/>
			<point x="266" y="130"/>
			<point x="211" y="186"/>
			<point x="211" y="257" type="curve"/>
			<point x="211" y="327"/>
			<point x="266" y="383"/>
		</contour>
		<contour>
			<point x="191" y="664" type="line"/>
			<point x="247" y="587" type="line"/>
			<point x="485" y="725" type="line"/>
			<point x="394" y="840" type="line"/>
		</contour>
	</outline>
</glyph>
<glyph name="Ccaron" format="2">
	<advance width="753"/>
	<unicode hex="010C"/>
	<outline>
		<contour>
			<point x="499" y="170" type="curve"/>
			<point x="499" y="170" type="line"/>
			<point x="595" y="170"/>
			<point x="661" y="221"/>
			<point x="661" y="221" type="curve"/>
			<point x="741" y="61" type="line"/>
			<point x="741" y="61"/>
			<point x="649" y="-15"/>
			<point x="470" y="-15" type="curve"/>
			<point x="237" y="-15"/>
			<point x="23" y="175"/>
			<point x="23" y="411" type="curve"/>
			<point x="23" y="648"/>
			<point x="236" y="840"/>
			<point x="470" y="840" type="curve"/>
			<point x="649" y="840"/>
			<point x="741" y="764"/>
			<point x="741" y="764" type="curve"/>
			<point x="661" y="604" type="line"/>
			<point x="661" y="604"/>
			<point x="595" y="655"/>
			<point x="499" y="655" type="curve"/>
			<point x="310" y="655"/>
			<point x="227" y="523"/>
			<point x="227" y="413" type="curve"/>
			<point x="227" y="302"/>
			<point x="310" y="170"/>
		</contour>
		<contour>
			<point x="288" y="1152" type="line"/>
			<point x="220" y="1061" type="line"/>
			<point x="441" y="899" type="line"/>
			<point x="662" y="1061" type="line"/>
			<point x="594" y="1152" type="line"/>
			<point x="441" y="1040" type="line"/>
		</contour>
	</outline>
</glyph>
<glyph name="Dcroat" format="2">
	<advance width="776"/>
	<unicode hex="0110"/>
	<outline>
		<contour>
			<point x="98" y="489" type="line"/>
			<point x="16" y="489" type="line"/>
			<point x="16" y="336" type="line"/>
			<point x="98" y="336" type="line"/>
			<point x="98" y="0" type="line"/>
			<point x="337" y="0" type="line" smooth="yes"/>
			<point x="564" y="0"/>
			<point x="753" y="172"/>
			<point x="753" y="413" type="curve"/>
			<point x="753" y="653"/>
			<point x="563" y="825"/>
			<point x="337" y="825" type="curve"/>
			<point x="98" y="825" type="line"/>
		</contour>
		<contour>
			<point x="286" y="489" type="line"/>
			<point x="286" y="657" type="line"/>
			<point x="315" y="657" type="line" smooth="yes"/>
			<point x="455" y="657"/>
			<point x="550" y="550"/>
			<point x="550" y="412" type="curve"/>
			<point x="549" y="274"/>
			<point x="454" y="168"/>
			<point x="315" y="168" type="curve"/>
			<point x="286" y="168" type="line"/>
			<point x="286" y="336" type="line"/>
			<point x="395" y="336" type="line"/>
			<point x="395" y="489" type="line"/>
		</contour>
	</outline>
</glyph>
<glyph name="dcroat" format="2">
	<advance width="683"/>
	<unicode hex="0111"/>
	<outline>
		<contour>
			<point x="321" y="742" type="line"/>
			<point x="321" y="628" type="line"/>
			<point x="446" y="628" type="line"/>
			<point x="446" y="464" type="line"/>
			<point x="404" y="505"/>
			<point x="347" y="528"/>
			<point x="278" y="528" type="curve"/>
			<point x="128" y="528"/>
			<point x="23" y="406"/>
			<point x="23" y="256" type="curve"/>
			<point x="23" y="106"/>
			<point x="128" y="-15"/>
			<point x="278" y="-15" type="curve"/>
			<point x="348" y="-15"/>
			<point x="408" y="16"/>
			<point x="446" y="58" type="curve"/>
			<point x="448" y="58" type="line"/>
			<point x="448" y="0" type="line"/>
			<point x="623" y="0" type="line"/>
			<point x="623" y="628" type="line"/>
			<point x="683" y="628" type="line"/>
			<point x="683" y="742" type="line"/>
			<point x="623" y="742" type="line"/>
			<point x="623" y="860" type="line"/>
			<point x="446" y="860" type="line"/>
			<point x="446" y="742" type="line"/>
		</contour>
		<contour>
			<point x="211" y="256" type="curve"/>
			<point x="211" y="256" type="line"/>
			<point x="211" y="327"/>
			<point x="264" y="377"/>
			<point x="331" y="377" type="curve"/>
			<point x="397" y="377"/>
			<point x="450" y="327"/>
			<point x="450" y="256" type="curve"/>
			<point x="450" y="186"/>
			<point x="400" y="136"/>
			<point x="331" y="136" type="curve"/>
			<point x="259" y="136"/>
			<point x="211" y="186"/>
		</contour>
	</outline>
</glyph>
<glyph name="Emacron" format="2">
	<advance width="580"/>
	<unicode hex="0112"/>
	<outline>
		<contour>
			<point x="532" y="825" type="line"/>
			<point x="60" y="825" type="line"/>
			<point x="60" y="0" type="line"/>
			<point x="532" y="0" type="line"/>
			<point x="532" y="165" type="line"/>
			<point x="248" y="165" type="line"/>
			<point x="248" y="331" type="line"/>
			<point x="520" y="331" type="line"/>
			<point x="520" y="496" type="line"/>
			<point x="248" y="496" type="line"/>
			<point x="248" y="660" type="line"/>
			<point x="532" y="660" type="line"/>
		</contour>
		<contour>
			<point x="86" y="1066" type="line"/>
			<point x="86" y="946" type="line"/>
			<point x="494" y="946" type="line"/>
			<point x="494" y="1066" type="line"/>
		</contour>
	</outline>
</glyph>
<glyph name="Edotaccent" format="2">
	<advance width="580"/>
	<unicode hex="0116"/>
	<outline>
		<contour>
			<point x="532" y="825" type="line"/>
			<point x="60" y="825" type="line"/>
			<point x="60" y="0" type="line"/>
			<point x="532" y="0" type="line"/>
			<point x="532" y="165" type="line"/>
			<point x="248" y="165" type="line"/>
			<point x="248" y="331" type="line"/>
			<point x="520" y="331" type="line"/>
			<point x="520" y="496" type="line"/>
			<point x="248" y="496" type="line"/>
			<point x="248" y="660" type="line"/>
			<point x="532" y="660" type="line"/>
		</contour>
		<contour>
			<point x="290" y="1103" type="curve"/>
			<point x="290" y="1103" type="line"/>
			<point x="239" y="1103"/>
			<point x="198" y="1062"/>
			<point x="198" y="1011" type="curve"/>
			<point x="198" y="960"/>
			<point x="239" y="919"/>
			<point x="290" y="919" type="curve"/>
			<point x="341" y="919"/>
			<point x="382" y="960"/>
			<point x="382" y="1011" type="curve"/>
			<point x="382" y="1062"/>
			<point x="341" y="1103"/>
		</contour>
	</outline>
</glyph>
<glyph name="edotaccent" format="2">
	<advance width="603"/>
	<unicode hex="0117"/>
	<outline>
		<contour>
			<point x="207" y="232" type="curve"/>
			<point x="207" y="232" type="line"/>
			<point x="579" y="232" type="line"/>
			<point x="580" y="238"/>
			<point x="580" y="249"/>
			<point x="580" y="256" type="curve"/>
			<point x="580" y="436"/>
			<point x="461" y="528"/>
			<point x="305" y="528" type="curve"/>
			<point x="150" y="528"/>
			<point x="23" y="406"/>
			<point x="23" y="256" type="curve"/>
			<point x="23" y="107"/>
			<point x="150" y="-15"/>
			<point x="305" y="-15" type="curve"/>
			<point x="419" y="-15"/>
			<point x="513" y="22"/>
			<point x="571" y="119" type="curve"/>
			<point x="443" y="183" type="line"/>
			<point x="400" y="137"/>
			<point x="375" y="126"/>
			<point x="318" y="126" type="curve"/>
			<point x="273" y="126"/>
			<point x="207" y="153"/>
		</contour>
		<contour>
			<point x="407" y="330" type="curve"/>
			<point x="407" y="330" type="line"/>
			<point x="212" y="330" type="line"/>
			<point x="215" y="377"/>
			<point x="249" y="413"/>
			<point x="310" y="413" type="curve"/>
			<point x="362" y="413"/>
			<point x="399" y="384"/>
		</contour>
		<contour>
			<point x="301" y="791" type="curve"/>
			<point x="301" y="791" type="line"/>
			<point x="250" y="791"/>
			<point x="209" y="750"/>
			<point x="209" y="699" type="curve"/>
			<point x="209" y="648"/>
			<point x="250" y="607"/>
			<point x="301" y="607" type="curve"/>
			<point x="352" y="607"/>
			<point x="393" y="648"/>
			<point x="393" y="699" type="curve"/>
			<point x="393" y="750"/>
			<point x="352" y="791"/>
		</contour>
	</outline>
</glyph>
<glyph name="eogonek" format="2">
	<advance width="603"/>
	<unicode hex="0119"/>
	<outline>
		<contour>
			<point x="207" y="232" type="curve"/>
			<point x="207" y="232" type="line"/>
			<point x="579" y="232" type="line"/>
			<point x="580" y="238"/>
			<point x="580" y="249"/>
			<point x="580" y="256" type="curve"/>
			<point x="580" y="436"/>
			<point x="461" y="528"/>
			<point x="305" y="528" type="curve"/>
			<point x="150" y="528"/>
			<point x="23" y="406"/>
			<point x="23" y="256" type="curve"/>
			<point x="23" y="107"/>
			<point x="150" y="-15"/>
			<point x="305" y="-15" type="curve"/>
			<point x="311" y="-15"/>
			<point x="318" y="-14"/>
			<point x="324" y="-14" type="curve"/>
			<point x="294" y="-52"/>
			<point x="256" y="-110"/>
			<point x="256" y="-158" type="curve"/>
			<point x="256" y="-245"/>
			<point x="330" y="-275"/>
			<point x="382" y="-275" type="curve"/>
			<point x="474" y="-275"/>
			<point x="519" y="-203"/>
			<point x="519" y="-203" type="curve"/>
			<point x="447" y="-149" type="line"/>
			<point x="447" y="-149"/>
			<point x="427" y="-179"/>
			<point x="396" y="-179" type="curve"/>
			<point x="379" y="-179"/>
			<point x="359" y="-165"/>
			<point x="359" y="-140" type="curve"/>
			<point x="359" y="-70"/>
			<point x="418" y="0"/>
			<point x="418" y="0" type="curve"/>
			<point x="481" y="19"/>
			<point x="533" y="56"/>
			<point x="571" y="119" type="curve"/>
			<point x="443" y="183" type="line"/>
			<point x="400" y="137"/>
			<point x="375" y="126"/>
			<point x="318" y="126" type="curve"/>
			<point x="273" y="126"/>
			<point x="207" y="153"/>
		</contour>
		<contour>
			<point x="407" y="330" type="curve"/>
			<point x="407" y="330" type="line"/>
			<point x="212" y="330" type="line"/>
			<point x="215" y="377"/>
			<point x="249" y="413"/>
			<point x="310" y="413" type="curve"/>
			<point x="362" y="413"/>
			<point x="399" y="384"/>
		</contour>
	</outline>
</glyph>
<glyph name="Ecaron" format="2">
	<advance width="580"/>
	<unicode hex="011A"/>
	<outline>
		<contour>
			<point x="532" y="825" type="line"/>
			<point x="60" y="825" type="line"/>
			<point x="60" y="0" type="line"/>
			<point x="532" y="0" type="line"/>
			<point x="532" y="165" type="line"/>
			<point x="248" y="165" type="line"/>
			<point x="248" y="331" type="line"/>
			<point x="520" y="331" type="line"/>
			<point x="520" y="496" type="line"/>
			<point x="248" y="496" type="line"/>
			<point x="248" y="660" type="line"/>
			<point x="532" y="660" type="line"/>
		</contour>
		<contour>
			<point x="137" y="1152" type="line"/>
			<point x="69" y="1061" type="line"/>
			<point x="290" y="899" type="line"/>
			<point x="511" y="1061" type="line"/>
			<point x="443" y="1152" type="line"/>
			<point x="290" y="1040" type="line"/>
		</contour>
	</outline>
</glyph>
<glyph name="uni0123" format="2">
	<advance width="683"/>
	<unicode hex="0123"/>
	<outline>
		<contour>
			<point x="342" y="607" type="curve"/>
			<point x="342" y="607" type="line"/>
			<point x="390" y="607"/>
			<point x="430" y="647"/>
			<point x="430" y="697" type="curve"/>
			<point x="430" y="737"/>
			<point x="401" y="768"/>
			<point x="363" y="777" type="curve"/>
			<point x="375" y="842"/>
			<point x="422" y="887"/>
			<point x="422" y="887" type="curve"/>
			<point x="382" y="918" type="line"/>
			<point x="319" y="866"/>
			<point x="252" y="790"/>
			<point x="252" y="697" type="curve"/>
			<point x="252" y="647"/>
			<point x="292" y="607"/>
		</contour>
		<contour>
			<point x="182" y="-55" type="curve"/>
			<point x="182" y="-55" type="line"/>
			<point x="37" y="-126" type="line"/>
			<point x="91" y="-251"/>
			<point x="214" y="-275"/>
			<point x="321" y="-275" type="curve"/>
			<point x="496" y="-275"/>
			<point x="623" y="-186"/>
			<point x="623" y="-14" type="curve"/>
			<point x="623" y="513" type="line"/>
			<point x="446" y="513" type="line"/>
			<point x="446" y="467" type="line"/>
			<point x="443" y="467" type="line"/>
			<point x="401" y="506"/>
			<point x="346" y="528"/>
			<point x="278" y="528" type="curve"/>
			<point x="128" y="528"/>
			<point x="23" y="406"/>
			<point x="23" y="256" type="curve"/>
			<point x="23" y="106"/>
			<point x="128" y="-15"/>
			<point x="278" y="-15" type="curve"/>
			<point x="348" y="-15"/>
			<point x="408" y="-5"/>
			<point x="446" y="37" type="curve"/>
			<point x="446" y="-1" type="line" smooth="yes"/>
			<point x="446" y="-92"/>
			<point x="370" y="-121"/>
			<point x="321" y="-121" type="curve"/>
			<point x="244" y="-121"/>
			<point x="201" y="-86"/>
		</contour>
		<contour>
			<point x="211" y="256" type="curve"/>
			<point x="211" y="256" type="line"/>
			<point x="211" y="327"/>
			<point x="264" y="377"/>
			<point x="331" y="377" type="curve"/>
			<point x="397" y="377"/>
			<point x="450" y="327"/>
			<point x="450" y="256" type="curve"/>
			<point x="450" y="186"/>
			<point x="400" y="136"/>
			<point x="331" y="136" type="curve"/>
			<point x="259" y="136"/>
			<point x="211" y="186"/>
		</contour>
	</outline>
</glyph>
<glyph name="imacron" format="2">
	<advance width="297"/>
	<unicode hex="012B"/>
	<outline>
		<contour>
			<point x="60" y="513" type="line"/>
			<point x="237" y="513" type="line"/>
			<point x="237" y="0" type="line"/>
			<point x="60" y="0" type="line"/>
		</contour>
		<contour>
			<point x="-55" y="754" type="line"/>
			<point x="-55" y="634" type="line"/>
			<point x="353" y="634" type="line"/>
			<point x="353" y="754" type="line"/>
		</contour>
	</outline>
</glyph>
<glyph name="Iogonek" format="2">
	<advance width="308"/>
	<unicode hex="012E"/>
	<outline>
		<contour>
			<point x="248" y="825" type="line"/>
			<point x="60" y="825" type="line"/>
			<point x="60" y="0" type="line"/>
			<point x="113" y="0" type="line"/>
			<point x="83" y="-36"/>
			<point x="33" y="-103"/>
			<point x="33" y="-158" type="curve"/>
			<point x="33" y="-245"/>
			<point x="107" y="-275"/>
			<point x="159" y="-275" type="curve"/>
			<point x="251" y="-275"/>
			<point x="296" y="-203"/>
			<point x="296" y="-203" type="curve"/>
			<point x="224" y="-149" type="line"/>
			<point x="224" y="-149"/>
			<point x="204" y="-179"/>
			<point x="173" y="-179" type="curve"/>
			<point x="156" y="-179"/>
			<point x="136" y="-165"/>
			<point x="136" y="-140" type="curve"/>
			<point x="136" y="-70"/>
			<point x="195" y="0"/>
			<point x="195" y="0" type="curve"/>
			<point x="248" y="0" type="line"/>
		</contour>
	</outline>
</glyph>
<glyph name="dotlessi" format="2">
	<advance width="269"/>
	<unicode hex="0131"/>
	<outline>
		<contour>
			<point x="46" y="0" type="line"/>
			<point x="223" y="0" type="line"/>
			<point x="223" y="513" type="line"/>
			<point x="46" y="513" type="line"/>
		</contour>
	</outline>
</glyph>
<glyph name="uni0137" format="2">
	<advance width="646"/>
	<unicode hex="0137"/>
	<outline>
		<contour>
			<point x="646" y="513" type="line"/>
			<point x="416" y="513" type="line"/>
			<point x="237" y="334" type="line"/>
			<point x="237" y="860" type="line"/>
			<point x="60" y="860" type="line"/>
			<point x="60" y="0" type="line"/>
			<point x="237" y="0" type="line"/>
			<point x="237" y="205" type="line"/>
			<point x="442" y="0" type="line"/>
			<point x="670" y="0" type="line"/>
			<point x="402" y="268" type="line"/>
		</contour>
		<contour>
			<point x="322" y="-40" type="curve"/>
			<point x="322" y="-40" type="line"/>
			<point x="274" y="-40"/>
			<point x="234" y="-80"/>
			<point x="234" y="-130" type="curve"/>
			<point x="234" y="-170"/>
			<point x="263" y="-201"/>
			<point x="301" y="-210" type="curve"/>
			<point x="289" y="-275"/>
			<point x="242" y="-320"/>
			<point x="242" y="-320" type="curve"/>
			<point x="282" y="-351" type="line"/>
			<point x="345" y="-299"/>
			<point x="412" y="-223"/>
			<point x="412" y="-130" type="curve"/>
			<point x="412" y="-80"/>
			<point x="372" y="-40"/>
		</contour>
	</outline>
</glyph>
<glyph name="uni013B" format="2">
	<advance width="565"/>
	<unicode hex="013B"/>
	<outline>
		<contour>
			<point x="248" y="825" type="line"/>
			<point x="60" y="825" type="line"/>
			<point x="60" y="0" type="line"/>
			<point x="532" y="0" type="line"/>
			<point x="532" y="165" type="line"/>
			<point x="248" y="165" type="line"/>
		</contour>
		<contour>
			<point x="281" y="-40" type="curve"/>
			<point x="281" y="-40" type="line"/>
			<point x="331" y="-40"/>
			<point x="371" y="-80"/>
			<point x="371" y="-130" type="curve"/>
			<point x="371" y="-223"/>
			<point x="304" y="-299"/>
			<point x="241" y="-351" type="curve"/>
			<point x="201" y="-320" type="line"/>
			<point x="201" y="-320"/>
			<point x="248" y="-275"/>
			<point x="260" y="-210" type="curve"/>
			<point x="222" y="-201"/>
			<point x="193" y="-170"/>
			<point x="193" y="-130" type="curve"/>
			<point x="193" y="-80"/>
			<point x="233" y="-40"/>
		</contour>
	</outline>
</glyph>
<glyph name="lcaron" format="2">
	<advance width="297"/>
	<unicode hex="013E"/>
	<outline>
		<contour>
			<point x="60" y="0" type="line"/>
			<point x="237" y="0" type="line"/>
			<point x="237" y="860" type="line"/>
			<point x="60" y="860" type="line"/>
		</contour>
		<contour>
			<point x="370" y="824" type="curve"/>
			<point x="370" y="824" type="line"/>
			<point x="322" y="824"/>
			<point x="282" y="784"/>
			<point x="282" y="734" type="curve"/>
			<point x="282" y="694"/>
			<point x="311" y="663"/>
			<point x="349" y="654" type="curve"/>
			<point x="337" y="589"/>
			<point x="290" y="544"/>
			<point x="290" y="544" type="curve"/>
			<point x="330" y="513" type="line"/>
			<point x="393" y="565"/>
			<point x="460" y="641"/>
			<point x="460" y="734" type="curve"/>
			<point x="460" y="784"/>
			<point x="420" y="824"/>
		</contour>
	</outline>
</glyph>
<glyph name="Lslash" format="2">
	<advance width="568"/>
	<unicode hex="0141"/>
	<outline>
		<contour>
			<point x="20" y="250" type="line"/>
			<point x="96" y="309" type="line"/>
			<point x="96" y="0" type="line"/>
			<point x="568" y="0" type="line"/>
			<point x="568" y="165" type="line"/>
			<point x="284" y="165" type="line"/>
			<point x="284" y="457" type="line"/>
			<point x="389" y="540" type="line"/>
			<point x="389" y="693" type="line"/>
			<point x="284" y="610" type="line"/>
			<point x="284" y="825" type="line"/>
			<point x="96" y="825" type="line"/>
			<point x="96" y="462" type="line"/>
			<point x="20" y="403" type="line"/>
		</contour>
	</outline>
</glyph>
<glyph name="lslash" format="2">
	<advance width="369"/>
	<unicode hex="0142"/>
	<outline>
		<contour>
			<point x="96" y="0" type="line"/>
			<point x="273" y="0" type="line"/>
			<point x="273" y="449" type="line"/>
			<point x="349" y="509" type="line"/>
			<point x="349" y="662" type="line"/>
			<point x="273" y="602" type="line"/>
			<point x="273" y="860" type="line"/>
			<point x="96" y="860" type="line"/>
			<point x="96" y="463" type="line"/>
			<point x="20" y="403" type="line"/>
			<point x="20" y="250" type="line"/>
			<point x="96" y="310" type="line"/>
		</contour>
	</outline>
</glyph>
<glyph name="Nacute" format="2">
	<advance width="826"/>
	<unicode hex="0143"/>
	<outline>
		<contour>
			<point x="248" y="512" type="line"/>
			<point x="250" y="512" type="line"/>
			<point x="578" y="0" type="line"/>
			<point x="766" y="0" type="line"/>
			<point x="766" y="825" type="line"/>
			<point x="578" y="825" type="line"/>
			<point x="578" y="313" type="line"/>
			<point x="576" y="313" type="line"/>
			<point x="248" y="825" type="line"/>
			<point x="60" y="825" type="line"/>
			<point x="60" y="0" type="line"/>
			<point x="248" y="0" type="line"/>
		</contour>
		<contour>
			<point x="266" y="976" type="line"/>
			<point x="322" y="899" type="line"/>
			<point x="560" y="1037" type="line"/>
			<point x="469" y="1152" type="line"/>
		</contour>
	</outline>
</glyph>
<glyph name="uni0145" format="2">
	<advance width="826"/>
	<unicode hex="0145"/>
	<outline>
		<contour>
			<point x="248" y="512" type="line"/>
			<point x="250" y="512" type="line"/>
			<point x="578" y="0" type="line"/>
			<point x="766" y="0" type="line"/>
			<point x="766" y="825" type="line"/>
			<point x="578" y="825" type="line"/>
			<point x="578" y="313" type="line"/>
			<point x="576" y="313" type="line"/>
			<point x="248" y="825" type="line"/>
			<point x="60" y="825" type="line"/>
			<point x="60" y="0" type="line"/>
			<point x="248" y="0" type="line"/>
		</contour>
		<contour>
			<point x="412" y="-40" type="curve"/>
			<point x="412" y="-40" type="line"/>
			<point x="462" y="-40"/>
			<point x="502" y="-80"/>
			<point x="502" y="-130" type="curve"/>
			<point x="502" y="-223"/>
			<point x="435" y="-299"/>
			<point x="372" y="-351" type="curve"/>
			<point x="332" y="-320" type="line"/>
			<point x="332" y="-320"/>
			<point x="379" y="-275"/>
			<point x="391" y="-210" type="curve"/>
			<point x="353" y="-201"/>
			<point x="324" y="-170"/>
			<point x="324" y="-130" type="curve"/>
			<point x="324" y="-80"/>
			<point x="364" y="-40"/>
		</contour>
	</outline>
</glyph>
<glyph name="uni0146" format="2">
	<advance width="661"/>
	<unicode hex="0146"/>
	<outline>
		<contour>
			<point x="60" y="0" type="line"/>
			<point x="237" y="0" type="line"/>
			<point x="237" y="290" type="line" smooth="yes"/>
			<point x="237" y="341"/>
			<point x="289" y="390"/>
			<point x="342" y="390" type="curve"/>
			<point x="399" y="390"/>
			<point x="434" y="341"/>
			<point x="434" y="290" type="curve"/>
			<point x="434" y="0" type="line"/>
			<point x="611" y="0" type="line"/>
			<point x="611" y="338" type="line" smooth="yes"/>
			<point x="611" y="481"/>
			<point x="480" y="528"/>
			<point x="386" y="528" type="curve"/>
			<point x="330" y="528"/>
			<point x="279" y="499"/>
			<point x="239" y="459" type="curve"/>
			<point x="237" y="459" type="line"/>
			<point x="237" y="513" type="line"/>
			<point x="60" y="513" type="line"/>
		</contour>
		<contour>
			<point x="329" y="-40" type="curve"/>
			<point x="329" y="-40" type="line"/>
			<point x="281" y="-40"/>
			<point x="241" y="-80"/>
			<point x="241" y="-130" type="curve"/>
			<point x="241" y="-170"/>
			<point x="270" y="-201"/>
			<point x="308" y="-210" type="curve"/>
			<point x="296" y="-275"/>
			<point x="249" y="-320"/>
			<point x="249" y="-320" type="curve"/>
			<point x="289" y="-351" type="line"/>
			<point x="352" y="-299"/>
			<point x="419" y="-223"/>
			<point x="419" y="-130" type="curve"/>
			<point x="419" y="-80"/>
			<point x="379" y="-40"/>
		</contour>
	</outline>
</glyph>
<glyph name="Ncaron" format="2">
	<advance width="826"/>
	<unicode hex="0147"/>
	<outline>
		<contour>
			<point x="248" y="512" type="line"/>
			<point x="250" y="512" type="line"/>
			<point x="578" y="0" type="line"/>
			<point x="766" y="0" type="line"/>
			<point x="766" y="825" type="line"/>
			<point x="578" y="825" type="line"/>
			<point x="578" y="313" type="line"/>
			<point x="576" y="313" type="line"/>
			<point x="248" y="825" type="line"/>
			<point x="60" y="825" type="line"/>
			<point x="60" y="0" type="line"/>
			<point x="248" y="0" type="line"/>
		</contour>
		<contour>
			<point x="260" y="1152" type="line"/>
			<point x="192" y="1061" type="line"/>
			<point x="413" y="899" type="line"/>
			<point x="634" y="1061" type="line"/>
			<point x="566" y="1152" type="line"/>
			<point x="413" y="1040" type="line"/>
		</contour>
	</outline>
</glyph>
<glyph name="Omacron" format="2">
	<advance width="877"/>
	<unicode hex="014C"/>
	<outline>
		<contour>
			<point x="226" y="413" type="curve"/>
			<point x="226" y="413" type="line"/>
			<point x="226" y="536"/>
			<point x="294" y="659"/>
			<point x="439" y="659" type="curve"/>
			<point x="585" y="659"/>
			<point x="651" y="536"/>
			<point x="651" y="413" type="curve"/>
			<point x="651" y="290"/>
			<point x="589" y="167"/>
			<point x="439" y="167" type="curve"/>
			<point x="285" y="167"/>
			<point x="226" y="290"/>
		</contour>
		<contour>
			<point x="23" y="413" type="curve"/>
			<point x="23" y="413" type="line"/>
			<point x="23" y="172"/>
			<point x="195" y="-15"/>
			<point x="439" y="-15" type="curve"/>
			<point x="676" y="-15"/>
			<point x="854" y="172"/>
			<point x="854" y="413" type="curve"/>
			<point x="854" y="654"/>
			<point x="668" y="840"/>
			<point x="439" y="840" type="curve"/>
			<point x="212" y="840"/>
			<point x="23" y="654"/>
		</contour>
		<contour>
			<point x="234" y="1066" type="line"/>
			<point x="234" y="946" type="line"/>
			<point x="642" y="946" type="line"/>
			<point x="642" y="1066" type="line"/>
		</contour>
	</outline>
</glyph>
<glyph name="Ohungarumlaut" format="2">
	<advance width="877"/>
	<unicode hex="0150"/>
	<outline>
		<contour>
			<point x="226" y="413" type="curve"/>
			<point x="226" y="413" type="line"/>
			<point x="226" y="536"/>
			<point x="294" y="659"/>
			<point x="439" y="659" type="curve"/>
			<point x="585" y="659"/>
			<point x="651" y="536"/>
			<point x="651" y="413" type="curve"/>
			<point x="651" y="290"/>
			<point x="589" y="167"/>
			<point x="439" y="167" type="curve"/>
			<point x="285" y="167"/>
			<point x="226" y="290"/>
		</contour>
		<contour>
			<point x="23" y="413" type="curve"/>
			<point x="23" y="413" type="line"/>
			<point x="23" y="172"/>
			<point x="195" y="-15"/>
			<point x="439" y="-15" type="curve"/>
			<point x="676" y="-15"/>
			<point x="854" y="172"/>
			<point x="854" y="413" type="curve"/>
			<point x="854" y="654"/>
			<point x="668" y="840"/>
			<point x="439" y="840" type="curve"/>
			<point x="212" y="840"/>
			<point x="23" y="654"/>
		</contour>
		<contour>
			<point x="231" y="976" type="line"/>
			<point x="287" y="899" type="line"/>
			<point x="486" y="1068" type="line"/>
			<point x="404" y="1172" type="line"/>
		</contour>
		<contour>
			<point x="442" y="976" type="line"/>
			<point x="498" y="899" type="line"/>
			<point x="697" y="1068" type="line"/>
			<point x="615" y="1172" type="line"/>
		</contour>
	</outline>
</glyph>
<glyph name="OE" format="2">
	<advance width="1010"/>
	<unicode hex="0152"/>
	<outline>
		<contour>
			<point x="678" y="660" type="line"/>
			<point x="962" y="660" type="line"/>
			<point x="962" y="825" type="line"/>
			<point x="439" y="825" type="line" smooth="yes"/>
			<point x="212" y="825"/>
			<point x="23" y="653"/>
			<point x="23" y="412" type="curve"/>
			<point x="23" y="171"/>
			<point x="212" y="0"/>
			<point x="439" y="0" type="curve"/>
			<point x="962" y="0" type="line"/>
			<point x="962" y="165" type="line"/>
			<point x="678" y="165" type="line"/>
			<point x="678" y="331" type="line"/>
			<point x="950" y="331" type="line"/>
			<point x="950" y="496" type="line"/>
			<point x="678" y="496" type="line"/>
		</contour>
		<contour>
			<point x="461" y="657" type="curve"/>
			<point x="461" y="657" type="line"/>
			<point x="490" y="657" type="line"/>
			<point x="490" y="168" type="line"/>
			<point x="461" y="168" type="line" smooth="yes"/>
			<point x="321" y="168"/>
			<point x="226" y="275"/>
			<point x="226" y="413" type="curve"/>
			<point x="226" y="550"/>
			<point x="321" y="657"/>
		</contour>
	</outline>
</glyph>
<glyph name="Scaron" format="2">
	<advance width="672"/>
	<unicode hex="0160"/>
	<outline>
		<contour>
			<point x="364" y="840" type="curve"/>
			<point x="364" y="840" type="line"/>
			<point x="231" y="840"/>
			<point x="95" y="742"/>
			<point x="95" y="588" type="curve"/>
			<point x="95" y="502"/>
			<point x="153" y="425"/>
			<point x="252" y="376" type="curve"/>
			<point x="350" y="327"/>
			<point x="438" y="300"/>
			<point x="438" y="240" type="curve"/>
			<point x="438" y="163"/>
			<point x="360" y="159"/>
			<point x="319" y="159" type="curve"/>
			<point x="227" y="159"/>
			<point x="117" y="252"/>
			<point x="117" y="252" type="curve"/>
			<point x="23" y="94" type="line"/>
			<point x="23" y="94"/>
			<point x="140" y="-15"/>
			<point x="333" y="-15" type="curve"/>
			<point x="494" y="-15"/>
			<point x="644" y="54"/>
			<point x="644" y="251" type="curve"/>
			<point x="644" y="359"/>
			<point x="543" y="437"/>
			<point x="451" y="476" type="curve"/>
			<point x="357" y="516"/>
			<point x="279" y="549"/>
			<point x="279" y="595" type="curve"/>
			<point x="279" y="640"/>
			<point x="313" y="669"/>
			<point x="377" y="669" type="curve"/>
			<point x="462" y="669"/>
			<point x="544" y="612"/>
			<point x="544" y="612" type="curve"/>
			<point x="620" y="762" type="line"/>
			<point x="620" y="762"/>
			<point x="514" y="840"/>
		</contour>
		<contour>
			<point x="183" y="1152" type="line"/>
			<point x="115" y="1061" type="line"/>
			<point x="336" y="899" type="line"/>
			<point x="557" y="1061" type="line"/>
			<point x="489" y="1152" type="line"/>
			<point x="336" y="1040" type="line"/>
		</contour>
	</outline>
</glyph>
<glyph name="uni0162" format="2">
	<advance width="596"/>
	<unicode hex="0162"/>
	<outline>
		<contour>
			<point x="8" y="660" type="line"/>
			<point x="204" y="660" type="line"/>
			<point x="204" y="0" type="line"/>
			<point x="392" y="0" type="line"/>
			<point x="392" y="660" type="line"/>
			<point x="588" y="660" type="line"/>
			<point x="588" y="825" type="line"/>
			<point x="8" y="825" type="line"/>
		</contour>
		<contour>
			<point x="297" y="-40" type="curve"/>
			<point x="297" y="-40" type="line"/>
			<point x="347" y="-40"/>
			<point x="387" y="-80"/>
			<point x="387" y="-130" type="curve"/>
			<point x="387" y="-223"/>
			<point x="320" y="-299"/>
			<point x="257" y="-351" type="curve"/>
			<point x="217" y="-320" type="line"/>
			<point x="217" y="-320"/>
			<point x="264" y="-275"/>
			<point x="276" y="-210" type="curve"/>
			<point x="238" y="-201"/>
			<point x="209" y="-170"/>
			<point x="209" y="-130" type="curve"/>
			<point x="209" y="-80"/>
			<point x="249" y="-40"/>
		</contour>
	</outline>
</glyph>
<glyph name="uni0163" format="2">
	<advance width="395"/>
	<unicode hex="0163"/>
	<outline>
		<contour>
			<point x="90" y="513" type="line"/>
			<point x="16" y="513" type="line"/>
			<point x="16" y="378" type="line"/>
			<point x="90" y="378" type="line"/>
			<point x="90" y="181" type="line" smooth="yes"/>
			<point x="90" y="90"/>
			<point x="124" y="-15"/>
			<point x="265" y="-15" type="curve"/>
			<point x="338" y="-15"/>
			<point x="395" y="17"/>
			<point x="395" y="17" type="curve"/>
			<point x="351" y="160" type="line"/>
			<point x="351" y="160"/>
			<point x="330" y="144"/>
			<point x="307" y="144" type="curve"/>
			<point x="279" y="144"/>
			<point x="267" y="167"/>
			<point x="267" y="215" type="curve"/>
			<point x="267" y="378" type="line"/>
			<point x="375" y="378" type="line"/>
			<point x="375" y="513" type="line"/>
			<point x="267" y="513" type="line"/>
			<point x="267" y="704" type="line"/>
			<point x="90" y="704" type="line"/>
		</contour>
		<contour>
			<point x="196" y="-40" type="curve"/>
			<point x="196" y="-40" type="line"/>
			<point x="148" y="-40"/>
			<point x="108" y="-80"/>
			<point x="108" y="-130" type="curve"/>
			<point x="108" y="-170"/>
			<point x="137" y="-201"/>
			<point x="175" y="-210" type="curve"/>
			<point x="163" y="-275"/>
			<point x="116" y="-320"/>
			<point x="116" y="-320" type="curve"/>
			<point x="156" y="-351" type="line"/>
			<point x="219" y="-299"/>
			<point x="286" y="-223"/>
			<point x="286" y="-130" type="curve"/>
			<point x="286" y="-80"/>
			<point x="246" y="-40"/>
		</contour>
	</outline>
</glyph>
<glyph name="Uring" format="2">
	<advance width="744"/>
	<unicode hex="016E"/>
	<outline>
		<contour>
			<point x="694" y="825" type="line"/>
			<point x="506" y="825" type="line"/>
			<point x="506" y="348" type="line" smooth="yes"/>
			<point x="506" y="210"/>
			<point x="464" y="170"/>
			<point x="372" y="170" type="curve"/>
			<point x="280" y="170"/>
			<point x="238" y="210"/>
			<point x="238" y="348" type="curve"/>
			<point x="238" y="825" type="line"/>
			<point x="50" y="825" type="line"/>
			<point x="50" y="293" type="line" smooth="yes"/>
			<point x="50" y="89"/>
			<point x="162" y="-15"/>
			<point x="372" y="-15" type="curve"/>
			<point x="582" y="-15"/>
			<point x="694" y="89"/>
			<point x="694" y="293" type="curve"/>
		</contour>
		<contour>
			<point x="211" y="1045" type="curve"/>
			<point x="211" y="1045" type="line"/>
			<point x="211" y="961"/>
			<point x="276" y="902"/>
			<point x="372" y="902" type="curve"/>
			<point x="466" y="902"/>
			<point x="533" y="961"/>
			<point x="533" y="1045" type="curve"/>
			<point x="533" y="1128"/>
			<point x="463" y="1187"/>
			<point x="372" y="1187" type="curve"/>
			<point x="282" y="1187"/>
			<point x="211" y="1128"/>
		</contour>
		<contour>
			<point x="311" y="1045" type="curve"/>
			<point x="311" y="1045" type="line"/>
			<point x="311" y="1079"/>
			<point x="339" y="1107"/>
			<point x="372" y="1107" type="curve"/>
			<point x="406" y="1107"/>
			<point x="433" y="1079"/>
			<point x="433" y="1045" type="curve"/>
			<point x="433" y="1010"/>
			<point x="407" y="981"/>
			<point x="372" y="981" type="curve"/>
			<point x="336" y="981"/>
			<point x="311" y="1010"/>
		</contour>
	</outline>
</glyph>
<glyph name="uring" format="2">
	<advance width="656"/>
	<unicode hex="016F"/>
	<outline>
		<contour>
			<point x="227" y="269" type="curve"/>
			<point x="227" y="269" type="line"/>
			<point x="227" y="513" type="line"/>
			<point x="50" y="513" type="line"/>
			<point x="50" y="226" type="line" smooth="yes"/>
			<point x="50" y="54"/>
			<point x="136" y="-15"/>
			<point x="328" y="-15" type="curve"/>
			<point x="520" y="-15"/>
			<point x="606" y="54"/>
			<point x="606" y="226" type="curve"/>
			<point x="606" y="513" type="line"/>
			<point x="429" y="513" type="line"/>
			<point x="429" y="269" type="line" smooth="yes"/>
			<point x="429" y="168"/>
			<point x="402" y="129"/>
			<point x="328" y="129" type="curve"/>
			<point x="254" y="129"/>
			<point x="227" y="168"/>
		</contour>
		<contour>
			<point x="167" y="733" type="curve"/>
			<point x="167" y="733" type="line"/>
			<point x="167" y="649"/>
			<point x="232" y="590"/>
			<point x="328" y="590" type="curve"/>
			<point x="422" y="590"/>
			<point x="489" y="649"/>
			<point x="489" y="733" type="curve"/>
			<point x="489" y="816"/>
			<point x="419" y="875"/>
			<point x="328" y="875" type="curve"/>
			<point x="238" y="875"/>
			<point x="167" y="816"/>
		</contour>
		<contour>
			<point x="267" y="733" type="curve"/>
			<point x="267" y="733" type="line"/>
			<point x="267" y="767"/>
			<point x="295" y="795"/>
			<point x="328" y="795" type="curve"/>
			<point x="362" y="795"/>
			<point x="389" y="767"/>
			<point x="389" y="733" type="curve"/>
			<point x="389" y="698"/>
			<point x="363" y="669"/>
			<point x="328" y="669" type="curve"/>
			<point x="292" y="669"/>
			<point x="267" y="698"/>
		</contour>
	</outline>
</glyph>
<glyph name="uhungarumlaut" format="2">
	<advance width="656"/>
	<unicode hex="0171"/>
	<outline>
		<contour>
			<point x="50" y="513" type="line"/>
			<point x="227" y="513" type="line"/>
			<point x="227" y="269" type="line" smooth="yes"/>
			<point x="227" y="168"/>
			<point x="254" y="129"/>
			<point x="328" y="129" type="curve"/>
			<point x="402" y="129"/>
			<point x="429" y="168"/>
			<point x="429" y="269" type="curve"/>
			<point x="429" y="513" type="line"/>
			<point x="606" y="513" type="line"/>
			<point x="606" y="226" type="line" smooth="yes"/>
			<point x="606" y="54"/>
			<point x="520" y="-15"/>
			<point x="328" y="-15" type="curve"/>
			<point x="136" y="-15"/>
			<point x="50" y="54"/>
			<point x="50" y="226" type="curve"/>
		</contour>
		<contour>
			<point x="121" y="664" type="line"/>
			<point x="177" y="587" type="line"/>
			<point x="376" y="756" type="line"/>
			<point x="294" y="860" type="line"/>
		</contour>
		<contour>
			<point x="332" y="664" type="line"/>
			<point x="388" y="587" type="line"/>
			<point x="587" y="756" type="line"/>
			<point x="505" y="860" type="line"/>
		</contour>
	</outline>
</glyph>
<glyph name="Ydieresis" format="2">
	<advance width="736"/>
	<unicode hex="0178"/>
	<outline>
		<contour>
			<point x="-30" y="825" type="line"/>
			<point x="274" y="370" type="line"/>
			<point x="274" y="0" type="line"/>
			<point x="462" y="0" type="line"/>
			<point x="462" y="370" type="line"/>
			<point x="766" y="825" type="line"/>
			<point x="540" y="825" type="line"/>
			<point x="368" y="561" type="line"/>
			<point x="196" y="825" type="line"/>
		</contour>
		<contour>
			<point x="249" y="1103" type="curve"/>
			<point x="249" y="1103" type="line"/>
			<point x="198" y="1103"/>
			<point x="157" y="1062"/>
			<point x="157" y="1011" type="curve"/>
			<point x="157" y="960"/>
			<point x="198" y="919"/>
			<point x="249" y="919" type="curve"/>
			<point x="300" y="919"/>
			<point x="341" y="960"/>
			<point x="341" y="1011" type="curve"/>
			<point x="341" y="1062"/>
			<point x="300" y="1103"/>
		</contour>
		<contour>
			<point x="486" y="1103" type="curve"/>
			<point x="486" y="1103" type="line"/>
			<point x="435" y="1103"/>
			<point x="394" y="1062"/>
			<point x="394" y="1011" type="curve"/>
			<point x="394" y="960"/>
			<point x="435" y="919"/>
			<point x="486" y="919" type="curve"/>
			<point x="537" y="919"/>
			<point x="578" y="960"/>
			<point x="578" y="1011" type="curve"/>
			<point x="578" y="1062"/>
			<point x="537" y="1103"/>
		</contour>
	</outline>
</glyph>
<glyph name="zdotaccent" format="2">
	<advance width="561"/>
	<unicode hex="017C"/>
	<outline>
		<contour>
			<point x="556" y="513" type="line"/>
			<point x="47" y="513" type="line"/>
			<point x="47" y="378" type="line"/>
			<point x="259" y="378" type="line"/>
			<point x="5" y="0" type="line"/>
			<point x="536" y="0" type="line"/>
			<point x="536" y="135" type="line"/>
			<point x="302" y="135" type="line"/>
		</contour>
		<contour>
			<point x="280" y="791" type="curve"/>
			<point x="280" y="791" type="line"/>
			<point x="229" y="791"/>
			<point x="188" y="750"/>
			<point x="188" y="699" type="curve"/>
			<point x="188" y="648"/>
			<point x="229" y="607"/>
			<point x="280" y="607" type="curve"/>
			<point x="331" y="607"/>
			<point x="372" y="648"/>
			<point x="372" y="699" type="curve"/>
			<point x="372" y="750"/>
			<point x="331" y="791"/>
		</contour>
	</outline>
</glyph>
<glyph name="circumflex" format="2">
	<advance width="582"/>
	<unicode hex="02C6"/>
	<outline>
		<contour>
			<point x="70" y="678" type="line"/>
			<point x="138" y="587" type="line"/>
			<point x="291" y="699" type="line"/>
			<point x="444" y="587" type="line"/>
			<point x="512" y="678" type="line"/>
			<point x="291" y="840" type="line"/>
		</contour>
	</outline>
</glyph>
<glyph name="caron" format="2">
	<advance width="582"/>
	<unicode hex="02C7"/>
	<outline>
		<contour>
			<point x="138" y="840" type="line"/>
			<point x="70" y="749" type="line"/>
			<point x="291" y="587" type="line"/>
			<point x="512" y="749" type="line"/>
			<point x="444" y="840" type="line"/>
			<point x="291" y="728" type="line"/>
		</contour>
	</outline>
</glyph>
<glyph name="breve" format="2">
	<advance width="602"/>
	<unicode hex="02D8"/>
	<outline>
		<contour>
			<point x="532" y="809" type="curve"/>
			<point x="532" y="809" type="line"/>
			<point x="406" y="840" type="line"/>
			<point x="406" y="840"/>
			<point x="395" y="737"/>
			<point x="301" y="737" type="curve"/>
			<point x="207" y="737"/>
			<point x="196" y="840"/>
			<point x="196" y="840" type="curve"/>
			<point x="70" y="809" type="line"/>
			<point x="82" y="702"/>
			<point x="172" y="628"/>
			<point x="301" y="628" type="curve"/>
			<point x="430" y="628"/>
			<point x="520" y="702"/>
		</contour>
	</outline>
</glyph>
<glyph name="ring" format="2">
	<advance width="462"/>
	<unicode hex="02DA"/>
	<outline>
		<contour>
			<point x="70" y="733" type="curve"/>
			<point x="70" y="733" type="line"/>
			<point x="70" y="649"/>
			<point x="135" y="590"/>
			<point x="231" y="590" type="curve"/>
			<point x="325" y="590"/>
			<point x="392" y="649"/>
			<point x="392" y="733" type="curve"/>
			<point x="392" y="816"/>
			<point x="322" y="875"/>
			<point x="231" y="875" type="curve"/>
			<point x="141" y="875"/>
			<point x="70" y="816"/>
		</contour>
		<contour>
			<point x="170" y="733" type="curve"/>
			<point x="170" y="733" type="line"/>
			<point x="170" y="767"/>
			<point x="198" y="795"/>
			<point x="231" y="795" type="curve"/>
			<point x="265" y="795"/>
			<point x="292" y="767"/>
			<point x="292" y="733" type="curve"/>
			<point x="292" y="698"/>
			<point x="266" y="669"/>
			<point x="231" y="669" type="curve"/>
			<point x="195" y="669"/>
			<point x="170" y="698"/>
		</contour>
	</outline>
</glyph>
<glyph name="ogonek" format="2">
	<advance width="403"/>
	<unicode hex="02DB"/>
	<outline>
		<contour>
			<point x="70" y="-158" type="curve"/>
			<point x="70" y="-158" type="line"/>
			<point x="70" y="-245"/>
			<point x="144" y="-275"/>
			<point x="196" y="-275" type="curve"/>
			<point x="288" y="-275"/>
			<point x="333" y="-203"/>
			<point x="333" y="-203" type="curve"/>
			<point x="261" y="-149" type="line"/>
			<point x="261" y="-149"/>
			<point x="241" y="-179"/>
			<point x="210" y="-179" type="curve"/>
			<point x="193" y="-179"/>
			<point x="173" y="-165"/>
			<point x="173" y="-140" type="curve"/>
			<point x="173" y="-70"/>
			<point x="232" y="0"/>
			<point x="232" y="0" type="curve"/>
			<point x="174" y="26" type="line"/>
			<point x="174" y="26"/>
			<point x="70" y="-79"/>
		</contour>
	</outline>
</glyph>
<glyph name="tilde" format="2">
	<advance width="602"/>
	<unicode hex="02DC"/>
	<outline>
		<contour>
			<point x="292" y="642" type="curve"/>
			<point x="292" y="642" type="line"/>
			<point x="292" y="642"/>
			<point x="357" y="615"/>
			<point x="396" y="615" type="curve"/>
			<point x="506" y="615"/>
			<point x="532" y="787"/>
			<point x="532" y="787" type="curve"/>
			<point x="431" y="787" type="line" smooth="yes"/>
			<point x="431" y="787"/>
			<point x="418" y="741"/>
			<point x="386" y="741" type="curve"/>
			<point x="350" y="741"/>
			<point x="310" y="760"/>
			<point x="310" y="760" type="curve"/>
			<point x="310" y="760"/>
			<point x="245" y="787"/>
			<point x="206" y="787" type="curve"/>
			<point x="96" y="787"/>
			<point x="70" y="615"/>
			<point x="70" y="615" type="curve"/>
			<point x="171" y="615" type="line"/>
			<point x="171" y="615"/>
			<point x="184" y="661"/>
			<point x="216" y="661" type="curve"/>
			<point x="252" y="661"/>
			<point x="292" y="642"/>
		</contour>
	</outline>
</glyph>
<glyph name="hungarumlaut" format="2">
	<advance width="606"/>
	<unicode hex="02DD"/>
	<outline>
		<contour>
			<point x="96" y="664" type="line"/>
			<point x="152" y="587" type="line"/>
			<point x="351" y="756" type="line"/>
			<point x="269" y="860" type="line"/>
		</contour>
		<contour>
			<point x="307" y="664" type="line"/>
			<point x="363" y="587" type="line"/>
			<point x="562" y="756" type="line"/>
			<point x="480" y="860" type="line"/>
		</contour>
	</outline>
</glyph>
<glyph name="quoteright" format="2">
	<advance width="291"/>
	<unicode hex="2019"/>
	<outline>
		<contour>
			<point x="163" y="840" type="curve"/>
			<point x="163" y="840" type="line"/>
			<point x="106" y="840"/>
			<point x="60" y="793"/>
			<point x="60" y="735" type="curve"/>
			<point x="60" y="688"/>
			<point x="94" y="652"/>
			<point x="138" y="641" type="curve"/>
			<point x="124" y="565"/>
			<point x="69" y="513"/>
			<point x="69" y="513" type="curve"/>
			<point x="116" y="476" type="line"/>
			<point x="189" y="537"/>
			<point x="268" y="626"/>
			<point x="268" y="735" type="curve"/>
			<point x="268" y="793"/>
			<point x="221" y="840"/>
		</contour>
	</outline>
</glyph>
<glyph name="quotesinglbase" format="2">
	<advance width="291"/>
	<unicode hex="201A"/>
	<outline>
		<contour>
			<point x="163" y="214" type="curve"/>
			<point x="163" y="214" type="line"/>
			<point x="106" y="214"/>
			<point x="60" y="167"/>
			<point x="60" y="109" type="curve"/>
			<point x="60" y="62"/>
			<point x="94" y="26"/>
			<point x="138" y="15" type="curve"/>
			<point x="124" y="-61"/>
			<point x="69" y="-113"/>
			<point x="69" y="-113" type="curve"/>
			<point x="116" y="-150" type="line"/>
			<point x="189" y="-89"/>
			<point x="268" y="0"/>
			<point x="268" y="109" type="curve"/>
			<point x="268" y="167"/>
			<point x="221" y="214"/>
		</contour>
	</outline>
</glyph>
<glyph name="quotedblleft" format="2">
	<advance width="545"/>
	<unicode hex="201C"/>
	<outline>
		<contour>
			<point x="128" y="476" type="curve"/>
			<point x="128" y="476" type="line"/>
			<point x="185" y="476"/>
			<point x="231" y="523"/>
			<point x="231" y="581" type="curve"/>
			<point x="231" y="628"/>
			<point x="197" y="664"/>
			<point x="153" y="675" type="curve"/>
			<point x="167" y="751"/>
			<point x="222" y="803"/>
			<point x="222" y="803" type="curve"/>
			<point x="175" y="840" type="line"/>
			<point x="102" y="779"/>
			<point x="23" y="690"/>
			<point x="23" y="581" type="curve"/>
			<point x="23" y="523"/>
			<point x="70" y="476"/>
		</contour>
		<contour>
			<point x="381" y="476" type="curve"/>
			<point x="381" y="476" type="line"/>
			<point x="438" y="476"/>
			<point x="485" y="523"/>
			<point x="485" y="581" type="curve"/>
			<point x="485" y="628"/>
			<point x="451" y="664"/>
			<point x="406" y="675" type="curve"/>
			<point x="421" y="751"/>
			<point x="476" y="803"/>
			<point x="476" y="803" type="curve"/>
			<point x="429" y="840" type="line"/>
			<point x="355" y="779"/>
			<point x="278" y="690"/>
			<point x="278" y="581" type="curve"/>
			<point x="278" y="523"/>
			<point x="323" y="476"/>
		</contour>
	</outline>
</glyph>
<glyph name="quotedblright" format="2">
	<advance width="545"/>
	<unicode hex="201D"/>
	<outline>
		<contour>
			<point x="417" y="840" type="curve"/>
			<point x="417" y="840" type="line"/>
			<point x="360" y="840"/>
			<point x="314" y="793"/>
			<point x="314" y="735" type="curve"/>
			<point x="314" y="688"/>
			<point x="348" y="652"/>
			<point x="392" y="641" type="curve"/>
			<point x="378" y="565"/>
			<point x="323" y="513"/>
			<point x="323" y="513" type="curve"/>
			<point x="370" y="476" type="line"/>
			<point x="443" y="537"/>
			<point x="522" y="626"/>
			<point x="522" y="735" type="curve"/>
			<point x="522" y="793"/>
			<point x="475" y="840"/>
		</contour>
		<contour>
			<point x="164" y="840" type="curve"/>
			<point x="164" y="840" type="line"/>
			<point x="107" y="840"/>
			<point x="60" y="793"/>
			<point x="60" y="735" type="curve"/>
			<point x="60" y="688"/>
			<point x="94" y="652"/>
			<point x="139" y="641" type="curve"/>
			<point x="124" y="565"/>
			<point x="69" y="513"/>
			<point x="69" y="513" type="curve"/>
			<point x="116" y="476" type="line"/>
			<point x="190" y="537"/>
			<point x="267" y="626"/>
			<point x="267" y="735" type="curve"/>
			<point x="267" y="793"/>
			<point x="222" y="840"/>
		</contour>
	</outline>
</glyph>
<glyph name="quotedblbase" format="2">
	<advance width="545"/>
	<unicode hex="201E"/>
	<outline>
		<contour>
			<point x="417" y="214" type="curve"/>
			<point x="417" y="214" type="line"/>
			<point x="360" y="214"/>
			<point x="314" y="167"/>
			<point x="314" y="109" type="curve"/>
			<point x="314" y="62"/>
			<point x="348" y="26"/>
			<point x="392" y="15" type="curve"/>
			<point x="378" y="-61"/>
			<point x="323" y="-113"/>
			<point x="323" y="-113" type="curve"/>
			<point x="370" y="-150" type="line"/>
			<point x="443" y="-89"/>
			<point x="522" y="0"/>
			<point x="522" y="109" type="curve"/>
			<point x="522" y="167"/>
			<point x="475" y="214"/>
		</contour>
		<contour>
			<point x="164" y="214" type="curve"/>
			<point x="164" y="214" type="line"/>
			<point x="107" y="214"/>
			<point x="60" y="167"/>
			<point x="60" y="109" type="curve"/>
			<point x="60" y="62"/>
			<point x="94" y="26"/>
			<point x="139" y="15" type="curve"/>
			<point x="124" y="-61"/>
			<point x="69" y="-113"/>
			<point x="69" y="-113" type="curve"/>
			<point x="116" y="-150" type="line"/>
			<point x="190" y="-89"/>
			<point x="267" y="0"/>
			<point x="267" y="109" type="curve"/>
			<point x="267" y="167"/>
			<point x="222" y="214"/>
		</contour>
	</outline>
</glyph>
<glyph name="dagger" format="2">
	<advance width="542"/>
	<unicode hex="2020"/>
	<outline>
		<contour>
			<point x="70" y="650" type="line"/>
			<point x="70" y="514" type="line"/>
			<point x="194" y="514" type="line"/>
			<point x="194" y="0" type="line"/>
			<point x="347" y="0" type="line"/>
			<point x="347" y="514" type="line"/>
			<point x="472" y="514" type="line"/>
			<point x="472" y="650" type="line"/>
			<point x="347" y="650" type="line"/>
			<point x="347" y="860" type="line"/>
			<point x="194" y="860" type="line"/>
			<point x="194" y="650" type="line"/>
		</contour>
	</outline>
</glyph>
<glyph name="daggerdbl" format="2">
	<advance width="542"/>
	<unicode hex="2021"/>
	<outline>
		<contour>
			<point x="70" y="366" type="line"/>
			<point x="70" y="230" type="line"/>
			<point x="194" y="230" type="line"/>
			<point x="194" y="0" type="line"/>
			<point x="347" y="0" type="line"/>
			<point x="347" y="230" type="line"/>
			<point x="472" y="230" type="line"/>
			<point x="472" y="366" type="line"/>
			<point x="347" y="366" type="line"/>
			<point x="347" y="494" type="line"/>
			<point x="472" y="494" type="line"/>
			<point x="472" y="630" type="line"/>
			<point x="347" y="630" type="line"/>
			<point x="347" y="860" type="line"/>
			<point x="194" y="860" type="line"/>
			<point x="194" y="630" type="line"/>
			<point x="70" y="630" type="line"/>
			<point x="70" y="494" type="line"/>
			<point x="194" y="494" type="line"/>
			<point x="194" y="366" type="line"/>
		</contour>
	</outline>
</glyph>
<glyph name="bullet" format="2">
	<advance width="716"/>
	<unicode hex="2022"/>
	<outline>
		<contour>
			<point x="357" y="553" type="curve"/>
			<point x="357" y="553" type="line"/>
			<point x="249" y="553"/>
			<point x="162" y="465"/>
			<point x="162" y="356" type="curve"/>
			<point x="162" y="248"/>
			<point x="249" y="161"/>
			<point x="357" y="161" type="curve"/>
			<point x="466" y="161"/>
			<point x="554" y="248"/>
			<point x="554" y="356" type="curve"/>
			<point x="554" y="465"/>
			<point x="466" y="553"/>
		</contour>
	</outline>
</glyph>
<glyph name="ellipsis" format="2">
	<advance width="1047"/>
	<unicode hex="2026"/>
	<outline>
		<contour>
			<point x="174" y="214" type="curve"/>
			<point x="174" y="214" type="line"/>
			<point x="111" y="214"/>
			<point x="60" y="163"/>
			<point x="60" y="99" type="curve"/>
			<point x="60" y="36"/>
			<point x="111" y="-15"/>
			<point x="174" y="-15" type="curve"/>
			<point x="238" y="-15"/>
			<point x="289" y="36"/>
			<point x="289" y="99" type="curve"/>
			<point x="289" y="163"/>
			<point x="238" y="214"/>
		</contour>
		<contour>
			<point x="523" y="214" type="curve"/>
			<point x="523" y="214" type="line"/>
			<point x="460" y="214"/>
			<point x="409" y="163"/>
			<point x="409" y="99" type="curve"/>
			<point x="409" y="36"/>
			<point x="460" y="-15"/>
			<point x="523" y="-15" type="curve"/>
			<point x="587" y="-15"/>
			<point x="638" y="36"/>
			<point x="638" y="99" type="curve"/>
			<point x="638" y="163"/>
			<point x="587" y="214"/>
		</contour>
		<contour>
			<point x="872" y="214" type="curve"/>
			<point x="872" y="214" type="line"/>
			<point x="809" y="214"/>
			<point x="758" y="163"/>
			<point x="758" y="99" type="curve"/>
			<point x="758" y="36"/>
			<point x="809" y="-15"/>
			<point x="872" y="-15" type="curve"/>
			<point x="936" y="-15"/>
			<point x="987" y="36"/>
			<point x="987" y="99" type="curve"/>
			<point x="987" y="163"/>
			<point x="936" y="214"/>
		</contour>
	</outline>
</glyph>
<glyph name="guilsinglright" format="2">
	<advance width="375"/>
	<unicode hex="203A"/>
	<outline>
		<contour>
			<point x="54" y="101" type="line"/>
			<point x="147" y="28" type="line"/>
			<point x="342" y="278" type="line"/>
			<point x="147" y="528" type="line"/>
			<point x="54" y="455" type="line"/>
			<point x="192" y="278" type="line"/>
		</contour>
	</outline>
</glyph>
<glyph name="minus" format="2">
	<advance width="633"/>
	<unicode hex="2212"/>
	<outline>
		<contour>
			<point x="60" y="491" type="line"/>
			<point x="60" y="338" type="line"/>
			<point x="573" y="338" type="line"/>
			<point x="573" y="491" type="line"/>
		</contour>
	</outline>
</glyph>
<glyph name="notequal" format="2">
	<advance width="633"/>
	<unicode hex="2260"/>
	<outline>
		<contour>
			<point x="153" y="70" type="line"/>
			<point x="239" y="218" type="line"/>
			<point x="573" y="218" type="line"/>
			<point x="573" y="371" type="line"/>
			<point x="328" y="371" type="line"/>
			<point x="378" y="458" type="line"/>
			<point x="573" y="458" type="line"/>
			<point x="573" y="611" type="line"/>
			<point x="467" y="611" type="line"/>
			<point x="551" y="755" type="line"/>
			<point x="433" y="755" type="line"/>
			<point x="349" y="611" type="line"/>
			<point x="60" y="611" type="line"/>
			<point x="60" y="458" type="line"/>
			<point x="260" y="458" type="line"/>
			<point x="210" y="371" type="line"/>
			<point x="60" y="371" type="line"/>
			<point x="60" y="218" type="line"/>
			<point x="121" y="218" type="line"/>
			<point x="35" y="70" type="line"/>
		</contour>
	</outline>
</glyph>
<glyph name="greaterequal" format="2">
	<advance width="667"/>
	<unicode hex="2265"/>
	<outline>
		<contour>
			<point x="60" y="405" type="line"/>
			<point x="60" y="263" type="line"/>
			<point x="607" y="485" type="line"/>
			<point x="607" y="603" type="line"/>
			<point x="60" y="825" type="line"/>
			<point x="60" y="683" type="line"/>
			<point x="418" y="543" type="line"/>
		</contour>
		<contour>
			<point x="60" y="153" type="line"/>
			<point x="60" y="0" type="line"/>
			<point x="607" y="0" type="line"/>
			<point x="607" y="153" type="line"/>
		</contour>
	</outline>
</glyph>
<glyph name="fi" format="2">
	<advance width="672"/>
	<unicode hex="FB01"/>
	<outline>
		<contour>
			<point x="435" y="0" type="line"/>
			<point x="612" y="0" type="line"/>
			<point x="612" y="513" type="line"/>
			<point x="267" y="513" type="line"/>
			<point x="267" y="617" type="line" smooth="yes"/>
			<point x="267" y="688"/>
			<point x="283" y="719"/>
			<point x="353" y="719" type="curve"/>
			<point x="406" y="719"/>
			<point x="470" y="667"/>
			<point x="470" y="667" type="curve"/>
			<point x="532" y="792" type="line"/>
			<point x="532" y="792"/>
			<point x="439" y="875"/>
			<point x="301" y="875" type="curve"/>
			<point x="161" y="875"/>
			<point x="91" y="772"/>
			<point x="90" y="622" type="curve"/>
			<point x="90" y="513" type="line"/>
			<point x="16" y="513" type="line"/>
			<point x="16" y="378" type="line"/>
			<point x="90" y="378" type="line"/>
			<point x="90" y="0" type="line"/>
			<point x="267" y="0" type="line"/>
			<point x="267" y="378" type="line"/>
			<point x="435" y="378" type="line"/>
		</contour>
	</outline>
</glyph>
<glyph name="f_f_i" format="2">
	<advance width="1047"/>
	<unicode hex="FB03"/>
	<outline>
		<contour>
			<point x="810" y="0" type="line"/>
			<point x="987" y="0" type="line"/>
			<point x="987" y="513" type="line"/>
			<point x="642" y="513" type="line"/>
			<point x="642" y="617" type="line" smooth="yes"/>
			<point x="642" y="688"/>
			<point x="658" y="719"/>
			<point x="728" y="719" type="curve"/>
			<point x="781" y="719"/>
			<point x="845" y="667"/>
			<point x="845" y="667" type="curve"/>
			<point x="907" y="792" type="line"/>
			<point x="907" y="792"/>
			<point x="814" y="875"/>
			<point x="676" y="875" type="curve"/>
			<point x="536" y="875"/>
			<point x="466" y="772"/>
			<point x="465" y="622" type="curve"/>
			<point x="465" y="513" type="line"/>
			<point x="287" y="513" type="line"/>
			<point x="287" y="617" type="line" smooth="yes"/>
			<point x="287" y="688"/>
			<point x="297" y="718"/>
			<point x="342" y="718" type="curve"/>
			<point x="371" y="718"/>
			<point x="395" y="704"/>
			<point x="395" y="704" type="curve"/>
			<point x="457" y="829" type="line"/>
			<point x="457" y="829"/>
			<point x="401" y="875"/>
			<point x="311" y="875" type="curve"/>
			<point x="183" y="875"/>
			<point x="111" y="772"/>
			<point x="110" y="622" type="curve"/>
			<point x="110" y="513" type="line"/>
			<point x="36" y="513" type="line"/>
			<point x="36" y="378" type="line"/>
			<point x="110" y="378" type="line"/>
			<point x="110" y="0" type="line"/>
			<point x="287" y="0" type="line"/>
			<point x="287" y="378" type="line"/>
			<point x="465" y="378" type="line"/>
			<point x="465" y="0" type="line"/>
			<point x="642" y="0" type="line"/>
			<point x="642" y="378" type="line"/>
			<point x="810" y="378" type="line"/>
		</contour>
	</outline>
</glyph>
<glyph name="Q.2" format="2">
	<advance width="876"/>
	<outline>
		<contour>
			<point x="813" y="-26" type="curve"/>
			<point x="813" y="-26" type="line"/>
			<point x="896" y="142" type="line"/>
			<point x="847" y="155"/>
			<point x="810" y="169"/>
			<point x="783" y="182" type="curve"/>
			<point x="822" y="248"/>
			<point x="844" y="327"/>
			<point x="844" y="413" type="curve"/>
			<point x="844" y="654"/>
			<point x="663" y="840"/>
			<point x="434" y="840" type="curve"/>
			<point x="207" y="840"/>
			<point x="23" y="654"/>
			<point x="23" y="413" type="curve"/>
			<point x="23" y="172"/>
			<point x="190" y="-15"/>
			<point x="434" y="-15" type="curve"/>
			<point x="520" y="-15"/>
			<point x="598" y="9"/>
			<point x="662" y="53" type="curve"/>
			<point x="699" y="27"/>
			<point x="752" y="-3"/>
		</contour>
		<contour>
			<point x="226" y="413" type="curve"/>
			<point x="226" y="413" type="line"/>
			<point x="226" y="536"/>
			<point x="289" y="651"/>
			<point x="434" y="651" type="curve"/>
			<point x="580" y="651"/>
			<point x="641" y="536"/>
			<point x="641" y="413" type="curve"/>
			<point x="641" y="363"/>
			<point x="632" y="315"/>
			<point x="611" y="275" type="curve"/>
			<point x="527" y="332"/>
			<point x="471" y="394"/>
			<point x="471" y="394" type="curve"/>
			<point x="391" y="294" type="line"/>
			<point x="409" y="271"/>
			<point x="446" y="226"/>
			<point x="493" y="182" type="curve"/>
			<point x="475" y="177"/>
			<point x="455" y="175"/>
			<point x="434" y="175" type="curve"/>
			<point x="280" y="175"/>
			<point x="226" y="290"/>
		</contour>
	</outline>
</glyph>
<glyph name="f_f_t" format="2">
	<advance width="1115"/>
	<outline>
		<contour>
			<point x="110" y="513" type="line"/>
			<point x="36" y="513" type="line"/>
			<point x="36" y="378" type="line"/>
			<point x="110" y="378" type="line"/>
			<point x="110" y="0" type="line"/>
			<point x="287" y="0" type="line"/>
			<point x="287" y="378" type="line"/>
			<point x="465" y="378" type="line"/>
			<point x="465" y="0" type="line"/>
			<point x="642" y="0" type="line"/>
			<point x="642" y="378" type="line"/>
			<point x="810" y="378" type="line"/>
			<point x="810" y="181" type="line" smooth="yes"/>
			<point x="810" y="90"/>
			<point x="844" y="-15"/>
			<point x="985" y="-15" type="curve"/>
			<point x="1058" y="-15"/>
			<point x="1115" y="17"/>
			<point x="1115" y="17" type="curve"/>
			<point x="1071" y="160" type="line"/>
			<point x="1071" y="160"/>
			<point x="1050" y="144"/>
			<point x="1027" y="144" type="curve"/>
			<point x="999" y="144"/>
			<point x="987" y="167"/>
			<point x="987" y="215" type="curve"/>
			<point x="987" y="378" type="line"/>
			<point x="1095" y="378" type="line"/>
			<point x="1095" y="513" type="line"/>
			<point x="987" y="513" type="line"/>
			<point x="987" y="704" type="line"/>
			<point x="810" y="704" type="line"/>
			<point x="810" y="513" type="line"/>
			<point x="642" y="513" type="line"/>
			<point x="642" y="617" type="line" smooth="yes"/>
			<point x="642" y="688"/>
			<point x="652" y="718"/>
			<point x="697" y="718" type="curve"/>
			<point x="726" y="718"/>
			<point x="750" y="704"/>
			<point x="750" y="704" type="curve"/>
			<point x="812" y="829" type="line"/>
			<point x="812" y="829"/>
			<point x="756" y="875"/>
			<point x="666" y="875" type="curve"/>
			<point x="538" y="875"/>
			<point x="466" y="772"/>
			<point x="465" y="622" type="curve"/>
			<point x="465" y="513" type="line"/>
			<point x="287" y="513" type="line"/>
			<point x="287" y="617" type="line" smooth="yes"/>
			<point x="287" y="688"/>
			<point x="297" y="718"/>
			<point x="342" y="718" type="curve"/>
			<point x="371" y="718"/>
			<point x="395" y="704"/>
			<point x="395" y="704" type="curve"/>
			<point x="457" y="829" type="line"/>
			<point x="457" y="829"/>
			<point x="401" y="875"/>
			<point x="311" y="875" type="curve"/>
			<point x="183" y="875"/>
			<point x="111" y="772"/>
			<point x="110" y="622" type="curve"/>
		</contour>
	</outline>
</glyph>
